<svg width="246" height="99" viewBox="0 0 246 99" fill="none" xmlns="http://www.w3.org/2000/svg">
<path opacity="0.25" d="M62.1973 117.25C49.5973 117.25 38.6973 114.85 29.4973 110.05C20.3973 105.15 13.3473 98.3 8.34727 89.5C3.34727 80.7 0.847266 70.45 0.847266 58.75C0.847266 47.05 3.34727 36.8 8.34727 28C13.3473 19.2 20.3973 12.4 29.4973 7.6C38.6973 2.69999 49.5973 0.249993 62.1973 0.249993C74.6973 0.249993 85.4973 2.69999 94.5973 7.6C103.797 12.4 110.897 19.2 115.897 28C120.897 36.8 123.397 47.05 123.397 58.75C123.397 70.45 120.897 80.7 115.897 89.5C110.897 98.3 103.797 105.15 94.5973 110.05C85.4973 114.85 74.6973 117.25 62.1973 117.25ZM62.1973 96.55C73.4973 96.55 82.2473 93.25 88.4473 86.65C94.7473 79.95 97.8973 70.65 97.8973 58.75C97.8973 46.75 94.7473 37.45 88.4473 30.85C82.2473 24.25 73.4973 20.95 62.1973 20.95C50.8973 20.95 42.0973 24.25 35.7973 30.85C29.4973 37.45 26.3473 46.75 26.3473 58.75C26.3473 70.75 29.4973 80.05 35.7973 86.65C42.0973 93.25 50.8973 96.55 62.1973 96.55ZM136.024 42.1C136.624 33.5 139.424 26.1 144.424 19.9C149.424 13.6 156.024 8.75 164.224 5.35C172.524 1.95 181.924 0.249993 192.424 0.249993C202.424 0.249993 211.174 1.79999 218.674 4.9C226.174 7.89999 232.024 12.15 236.224 17.65C240.424 23.15 242.524 29.55 242.524 36.85C242.524 42.45 241.074 47.65 238.174 52.45C235.274 57.25 230.624 62.1 224.224 67C217.924 71.8 209.524 77 199.024 82.6L164.974 101.35L163.024 94.45H245.674V115H137.674V97L185.824 68.8C193.824 64.2 200.074 60.25 204.574 56.95C209.074 53.55 212.274 50.4 214.174 47.5C216.074 44.6 217.024 41.5 217.024 38.2C217.024 34.7 216.074 31.6 214.174 28.9C212.274 26.2 209.424 24.1 205.624 22.6C201.924 21.1 197.224 20.35 191.524 20.35C184.824 20.35 179.324 21.35 175.024 23.35C170.724 25.25 167.474 27.85 165.274 31.15C163.174 34.45 161.924 38.1 161.524 42.1H136.024Z" fill="#FF772D"/>
</svg>
