<svg width="247" height="98" viewBox="0 0 247 98" fill="none" xmlns="http://www.w3.org/2000/svg">
<path opacity="0.25" d="M61.9648 117.25C49.3648 117.25 38.4648 114.85 29.2648 110.05C20.1648 105.15 13.1148 98.3 8.11484 89.5C3.11484 80.7 0.614844 70.45 0.614844 58.75C0.614844 47.05 3.11484 36.8 8.11484 28C13.1148 19.2 20.1648 12.4 29.2648 7.6C38.4648 2.69999 49.3648 0.249993 61.9648 0.249993C74.4648 0.249993 85.2648 2.69999 94.3648 7.6C103.565 12.4 110.665 19.2 115.665 28C120.665 36.8 123.165 47.05 123.165 58.75C123.165 70.45 120.665 80.7 115.665 89.5C110.665 98.3 103.565 105.15 94.3648 110.05C85.2648 114.85 74.4648 117.25 61.9648 117.25ZM61.9648 96.55C73.2648 96.55 82.0148 93.25 88.2149 86.65C94.5148 79.95 97.6648 70.65 97.6648 58.75C97.6648 46.75 94.5148 37.45 88.2149 30.85C82.0148 24.25 73.2648 20.95 61.9648 20.95C50.6648 20.95 41.8648 24.25 35.5648 30.85C29.2648 37.45 26.1148 46.75 26.1148 58.75C26.1148 70.75 29.2648 80.05 35.5648 86.65C41.8648 93.25 50.6648 96.55 61.9648 96.55ZM137.892 38.05C138.492 30.95 140.992 24.55 145.392 18.85C149.892 13.15 156.242 8.65 164.442 5.35C172.642 1.95 182.492 0.249993 193.992 0.249993C204.092 0.249993 212.842 1.54999 220.242 4.15C227.642 6.74999 233.392 10.35 237.492 14.95C241.592 19.55 243.642 25 243.642 31.3C243.642 36.4 242.092 41.05 238.992 45.25C235.992 49.35 231.292 52.65 224.892 55.15C218.492 57.55 210.392 58.7 200.592 58.6V55.75C210.092 55.25 218.192 56 224.892 58C231.692 59.9 236.942 62.9 240.642 67C244.342 71.1 246.192 76.25 246.192 82.45C246.192 89.15 244.042 95.15 239.742 100.45C235.542 105.65 229.392 109.75 221.292 112.75C213.192 115.75 203.342 117.25 191.742 117.25C180.442 117.25 170.592 115.65 162.192 112.45C153.792 109.25 147.242 104.75 142.542 98.95C137.842 93.15 135.292 86.35 134.892 78.55H160.392C161.192 84.55 164.192 89.15 169.392 92.35C174.592 95.55 182.042 97.15 191.742 97.15C201.142 97.15 208.242 95.7 213.042 92.8C217.842 89.9 220.242 85.85 220.242 80.65C220.242 77.55 219.442 74.95 217.842 72.85C216.242 70.75 213.492 69.2 209.592 68.2C205.792 67.1 200.592 66.55 193.992 66.55H174.192V48.7H193.992C202.592 48.7 208.742 47.4 212.442 44.8C216.142 42.2 217.992 38.85 217.992 34.75C217.992 30.15 215.892 26.6 211.692 24.1C207.492 21.6 201.142 20.35 192.642 20.35C183.942 20.35 177.142 21.9 172.242 25C167.342 28 164.392 32.35 163.392 38.05H137.892Z" fill="#FF772D"/>
</svg>
