<svg width="251" height="99" viewBox="0 0 251 99" fill="none" xmlns="http://www.w3.org/2000/svg">
<path opacity="0.25" d="M62.1592 117.25C49.5592 117.25 38.6592 114.85 29.4592 110.05C20.3592 105.15 13.3092 98.3 8.30918 89.5C3.30918 80.7 0.80918 70.45 0.80918 58.75C0.80918 47.05 3.30918 36.8 8.30918 28C13.3092 19.2 20.3592 12.4 29.4592 7.6C38.6592 2.69999 49.5592 0.249993 62.1592 0.249993C74.6592 0.249993 85.4592 2.69999 94.5592 7.6C103.759 12.4 110.859 19.2 115.859 28C120.859 36.8 123.359 47.05 123.359 58.75C123.359 70.45 120.859 80.7 115.859 89.5C110.859 98.3 103.759 105.15 94.5592 110.05C85.4592 114.85 74.6592 117.25 62.1592 117.25ZM62.1592 96.55C73.4592 96.55 82.2092 93.25 88.4092 86.65C94.7092 79.95 97.8592 70.65 97.8592 58.75C97.8592 46.75 94.7092 37.45 88.4092 30.85C82.2092 24.25 73.4592 20.95 62.1592 20.95C50.8592 20.95 42.0592 24.25 35.7592 30.85C29.4592 37.45 26.3092 46.75 26.3092 58.75C26.3092 70.75 29.4592 80.05 35.7592 86.65C42.0592 93.25 50.8592 96.55 62.1592 96.55ZM231.236 2.49999V115H206.036V13.45H214.736L153.236 81.55L152.936 73.15H250.436V92.65H133.886V74.65L198.986 2.49999H231.236Z" fill="#FF772D"/>
</svg>
