<svg width="45" height="45" viewBox="0 0 45 45" fill="none" xmlns="http://www.w3.org/2000/svg">
<path d="M16.8779 15.1739C15.8355 14.8421 14.8879 15.8372 15.1722 16.8796L21.8053 38.5797C22.1371 39.6694 23.5582 39.8591 24.1743 38.9588L27.5384 34.3156L37.7252 44.5024C38.3885 45.1657 39.4309 45.1657 40.0469 44.5024L44.4531 40.0962C45.1164 39.4329 45.1164 38.3905 44.4531 37.7745L34.2663 27.5877L38.9095 24.2235C39.8098 23.5602 39.5728 22.1864 38.5304 21.8545L16.8779 15.1739Z" fill="#FF772D"/>
<path d="M10.8154 10.8144C11.3366 10.2932 11.3366 9.48777 10.8154 9.01389L6.88284 5.08133C6.36164 4.56013 5.55619 4.56013 5.08231 5.08133C4.56111 5.60253 4.56111 6.40798 5.08231 6.88186L9.01486 10.8144C9.53639 11.3356 10.3418 11.3356 10.8154 10.8144Z" fill="#27AE60"/>
<path d="M16.5004 8.06666C16.7847 8.01939 17.0689 7.87728 17.2586 7.68757C17.5428 7.40334 17.685 7.02427 17.6377 6.64521L16.9744 1.10172C16.8795 0.391154 16.2638 -0.0827835 15.5529 0.0120615C14.8423 0.106915 14.3684 0.722629 14.4632 1.43355L15.1265 6.97704C15.1738 7.64001 15.8372 8.11395 16.5004 8.06666Z" fill="#27AE60"/>
<path d="M26.9242 2.38068C26.3082 2.0016 25.5504 2.1913 25.1713 2.80703L22.2811 7.59234C21.902 8.20839 22.0917 8.9662 22.7074 9.34533C23.2286 9.62956 23.8446 9.58229 24.271 9.15595C24.3658 9.0611 24.4131 9.01383 24.4603 8.91898L27.3505 4.13366C27.6824 3.51795 27.4927 2.75981 26.9242 2.38068Z" fill="#27AE60"/>
<path d="M32.7515 10.5774L27.5395 12.5674C26.8762 12.8043 26.5443 13.5625 26.8289 14.2258C27.0659 14.8891 27.8241 15.221 28.4874 14.9364L33.6994 12.9464C33.8888 12.8992 34.0312 12.8043 34.1257 12.6622C34.4576 12.3304 34.5997 11.8095 34.41 11.2884C34.1257 10.6247 33.3676 10.2928 32.7515 10.5774Z" fill="#27AE60"/>
<path d="M6.64437 17.637C7.07071 17.6843 7.44979 17.5422 7.68673 17.2579C7.87611 17.0686 8.01856 16.784 8.06582 16.4998C8.16067 15.7892 7.63947 15.1731 6.97616 15.0783L1.43267 14.415C0.722103 14.3201 0.106025 14.8413 0.0111799 15.5046C-0.0836736 16.2152 0.437526 16.8313 1.10084 16.9261L6.64437 17.637Z" fill="#27AE60"/>
<path d="M8.91905 24.4599C9.01391 24.4127 9.10843 24.3178 9.15602 24.2705C9.58237 23.8442 9.67722 23.2282 9.3454 22.707C8.96632 22.091 8.20819 21.9016 7.59242 22.2807L2.8071 25.1708C2.19105 25.5499 2.00168 26.3081 2.38075 26.9238C2.75984 27.5399 3.51796 27.7293 4.13374 27.3502L8.91905 24.4599Z" fill="#27AE60"/>
<path d="M14.2253 26.7819C13.562 26.545 12.8514 26.8768 12.5668 27.4925L10.5768 32.7045C10.3399 33.3678 10.6717 34.0783 11.2874 34.363C11.7613 34.5523 12.2826 34.4102 12.6613 34.0787C12.8034 33.9366 12.8982 33.7945 12.9455 33.6524L14.9355 28.4404C15.2204 27.7767 14.8886 27.0189 14.2253 26.7819Z" fill="#27AE60"/>
</svg>
