<svg width="32" height="32" viewBox="0 0 32 32" fill="none" xmlns="http://www.w3.org/2000/svg">
<path d="M3.18465 13.5689L28.8463 5.43328C29.2469 5.30099 29.5908 5.06477 29.3886 4.38444L28.9105 2.87827C28.8048 2.54247 28.6338 2.23085 28.4073 1.9613C28.1809 1.69174 27.9034 1.46956 27.5909 1.3075C27.2783 1.14543 26.9369 1.04668 26.5861 1.01691C26.2353 0.98713 25.882 1.02692 25.5467 1.13398L2.87095 8.32279C2.53514 8.42852 2.22352 8.59953 1.95397 8.82599C1.68442 9.05245 1.46223 9.32991 1.30017 9.64244C1.13811 9.95498 1.03936 10.2964 1.00958 10.6472C0.979806 10.998 1.01959 11.3513 1.12666 11.6866L1.56509 13.07C1.7484 13.6123 2.14148 13.9015 3.18465 13.5708V13.5689Z" fill="#676767"/>
<path d="M24.136 5.24619L6.40212 10.9685C6.15508 10.6369 5.84263 10.3594 5.4841 10.1534C5.12557 9.94727 4.72858 9.81692 4.31767 9.77037C2.98914 9.62674 2.7737 11.6205 4.10223 11.7622C4.97154 11.9701 5.27769 12.5238 5.48557 12.864L25.3984 6.55204C25.6063 5.73942 24.788 5.05154 24.136 5.24619Z" fill="#4D4D4D"/>
<path d="M1.85547 15.0731V28.3281C1.85547 29.8135 3.05171 31.0079 4.5371 31.0079H28.3221C29.8075 31.0079 31.0038 29.8135 31.0038 28.3281V15.1373C31.0038 14.3625 30.4028 13.582 29.5222 13.582H3.34841C2.58871 13.582 1.85547 13.9619 1.85547 15.0731Z" fill="#FF772D"/>
<path d="M7.29699 17.8589C5.9609 17.8589 5.9609 19.8621 7.29699 19.8621H31.0518V17.8589H7.29699Z" fill="#FF5C03"/>
<path d="M31.053 18.2402L31.0492 15.1636C31.0492 14.2906 30.3708 13.6064 29.5676 13.6064H3.35232C2.36017 13.6064 1.85938 14.2036 1.85938 15.0994V18.2402H31.053Z" fill="#676767"/>
<path d="M6.05522 13.7107C6.05522 14.0426 5.98984 14.3713 5.86281 14.678C5.73579 14.9847 5.54961 15.2633 5.3149 15.498C5.08019 15.7327 4.80155 15.9189 4.49488 16.0459C4.18822 16.1729 3.85954 16.2383 3.52761 16.2383C3.19568 16.2383 2.867 16.1729 2.56033 16.0459C2.25367 15.9189 1.97503 15.7327 1.74032 15.498C1.50561 15.2633 1.31943 14.9847 1.1924 14.678C1.06538 14.3713 1 14.0426 1 13.7107C1 13.0404 1.2663 12.3974 1.74032 11.9234C2.21434 11.4494 2.85725 11.1831 3.52761 11.1831C4.19797 11.1831 4.84088 11.4494 5.3149 11.9234C5.78892 12.3974 6.05522 13.0404 6.05522 13.7107Z" fill="#FF772D"/>
<path d="M11.2162 13.6067L8.07536 18.2405H14.5763L17.0784 13.6067H11.2162ZM10.98 5.76591L4.78711 7.7313L10.7721 11.1877L16.3924 9.40567L10.98 5.76591ZM22.4133 13.6067L20.0756 18.2405H26.0474L28.334 13.6067H22.4133ZM22.95 1.97119L16.7325 3.94225L22.0542 7.61036L27.9372 5.74701L22.95 1.97119Z" fill="#D1DCFF"/>
<path d="M14.723 8.28294L8.96289 10.1406L10.7733 11.1876L16.3936 9.40548L14.723 8.28294ZM24.1361 5.24603L20.3792 6.45739L22.0535 7.61017L25.3985 6.55188C25.6064 5.80352 24.8429 5.04004 24.1361 5.24603Z" fill="#BFD2FF"/>
<path d="M4.73627 23.5378C4.05405 23.5226 4.05405 24.5545 4.73627 24.5394H18.5923C19.2745 24.5545 19.2745 23.5226 18.5923 23.5378H4.73627ZM10.3263 26.5047C8.45351 26.5085 6.55993 26.5047 4.68714 26.5047C4.07295 26.5822 4.11642 27.4874 4.73627 27.5045H10.2715C10.9594 27.5649 11.0161 26.5218 10.3263 26.5047Z" fill="#676767"/>
</svg>
