<svg width="22" height="19" viewBox="0 0 22 19" fill="none" xmlns="http://www.w3.org/2000/svg">
<path d="M2.53862 10.7693L1.70462 9.93529C-0.568208 7.66246 -0.568208 3.97746 1.70462 1.70462C3.97746 -0.568208 7.66246 -0.568208 9.93529 1.70462L10.7693 2.53862L8.08654 7.25154L2.53862 10.7693Z" fill="#FF772D"/>
<path d="M19.834 1.70462C17.5612 -0.568208 13.8762 -0.568208 11.6033 1.70462L10.7693 2.53862L10.3486 6.36905L10.7693 8.22621L14.4471 4.5484C14.9054 4.09016 15.4405 4.02171 15.7187 4.02171C15.9969 4.02171 16.532 4.09016 16.9902 4.5484C17.4485 5.00669 17.5169 5.54179 17.5169 5.81994C17.5169 6.09809 17.4484 6.63319 16.9902 7.09148L10.7693 13.3124L10.3486 15.0793L10.7693 19L19.834 9.93529C22.1068 7.66246 22.1068 3.97746 19.834 1.70462Z" fill="#282866"/>
<path d="M8.22568 10.7692L10.7688 8.22617V2.53857L2.53809 10.7692L10.7688 19V13.3123L8.22568 10.7692Z" fill="#4A4080"/>
</svg>
