<svg width="22" height="23" viewBox="0 0 22 23" fill="none" xmlns="http://www.w3.org/2000/svg">
<path opacity="0.7" d="M19.7545 10.1929C19.88 9.97024 19.9179 9.70906 19.8607 9.46026C19.8034 9.21131 19.6551 8.9925 19.4447 8.84584L18.3125 8.05438H18.3127C18.2506 8.01076 18.2155 7.93857 18.2197 7.86326L18.3024 6.49052C18.3183 6.23575 18.2383 5.98425 18.078 5.78476C17.9177 5.58512 17.6886 5.4517 17.435 5.41035L16.0687 5.18485H16.0686C15.9936 5.17277 15.9302 5.12276 15.9016 5.0527L15.3762 3.78054C15.2792 3.54424 15.0972 3.352 14.8656 3.24131C14.6341 3.13048 14.3692 3.10902 14.1226 3.18092L12.7936 3.56643C12.7206 3.58788 12.6415 3.56998 12.5851 3.51925L11.5557 2.59935C11.3649 2.42827 11.1169 2.3335 10.8599 2.3335C10.6029 2.3335 10.3549 2.42827 10.1641 2.59935L9.13502 3.51925C9.07863 3.56984 8.99964 3.58774 8.92665 3.56643L7.59718 3.18092H7.59733C7.35061 3.10902 7.08586 3.13048 6.85432 3.24116C6.62263 3.352 6.44074 3.5441 6.34358 3.7804L5.81823 5.0527C5.78918 5.12247 5.72607 5.17235 5.65122 5.18485L4.28541 5.41035C4.03153 5.4517 3.80226 5.58498 3.64201 5.78462C3.48159 5.98426 3.40159 6.23589 3.41748 6.49067L3.50019 7.86312C3.50506 7.93857 3.46986 8.01104 3.40746 8.05423L2.2752 8.84584C2.06469 8.99247 1.91657 9.2113 1.85931 9.46026C1.80207 9.70906 1.83985 9.97024 1.9655 10.1929L2.63981 11.3939C2.67702 11.4598 2.67702 11.5402 2.63981 11.6062L1.9655 12.8073V12.8071C1.83985 13.0299 1.80207 13.2911 1.85931 13.5399C1.91641 13.7887 2.06467 14.0077 2.2752 14.1543L3.40746 14.9461V14.9459C3.46986 14.9891 3.50506 15.0616 3.50019 15.1369L3.41748 16.5097C3.40174 16.7644 3.48159 17.0159 3.64201 17.2156C3.80229 17.4151 4.03141 17.5485 4.28515 17.5898L5.65126 17.8153C5.7261 17.8278 5.78921 17.8777 5.81826 17.9475L6.34362 19.2196C6.44064 19.4559 6.62268 19.6482 6.85425 19.7589C7.08594 19.8697 7.3507 19.8912 7.5974 19.8193L8.92687 19.4338H8.92673C8.99971 19.4122 9.07885 19.4301 9.13509 19.4809L10.1642 20.4008C10.3549 20.5721 10.603 20.6668 10.86 20.6668C11.1171 20.6668 11.3651 20.5721 11.5558 20.4008L12.5853 19.4809C12.6415 19.4301 12.7205 19.4122 12.7935 19.4338L14.1227 19.8193C14.3693 19.8912 14.634 19.8696 14.8655 19.7589C15.0972 19.648 15.2791 19.4559 15.3763 19.2198L15.9013 17.9478C15.9301 17.8777 15.9935 17.8274 16.0686 17.8153L17.4349 17.5898H17.435C17.6886 17.5485 17.9179 17.4151 18.0782 17.2154C18.2383 17.0158 18.3183 16.7643 18.3024 16.5095L18.2197 15.1371C18.2156 15.0618 18.2505 14.9896 18.3124 14.9458L19.4447 14.1542V14.1544C19.6552 14.0077 19.8035 13.7887 19.8607 13.5399C19.9178 13.2911 19.88 13.03 19.7545 12.8072L19.0802 11.606L19.0801 11.6062C19.0428 11.5402 19.0428 11.46 19.0801 11.394L19.7545 10.1929ZM8.63739 7.40504C9.14187 7.40504 9.62557 7.60411 9.98218 7.9582C10.3388 8.31244 10.5391 8.79269 10.5391 9.29344C10.5391 9.79433 10.3387 10.2746 9.98203 10.6287C9.62541 10.9828 9.14168 11.1817 8.63725 11.1817C8.13277 11.1817 7.64907 10.9828 7.29246 10.6287C6.93585 10.2746 6.73549 9.79429 6.73549 9.29344C6.73606 8.79269 6.93656 8.31272 7.2932 7.95878C7.64982 7.60469 8.13325 7.40562 8.63739 7.40504ZM13.0824 15.595C12.5779 15.595 12.0942 15.3961 11.7375 15.0418C11.3808 14.6877 11.1805 14.2074 11.1805 13.7066C11.1805 13.2058 11.3808 12.7254 11.7375 12.3714C12.0942 12.0173 12.5779 11.8183 13.0822 11.8183C13.5867 11.8183 14.0704 12.0173 14.4272 12.3714C14.7838 12.7256 14.9841 13.2058 14.9841 13.7067C14.9836 14.2073 14.7829 14.6872 14.4264 15.0413C14.07 15.3952 13.5865 15.5943 13.0824 15.595L13.0824 15.595ZM14.9064 8.34644L7.68337 15.5179C7.52781 15.6718 7.3014 15.7316 7.08932 15.675C6.87723 15.6185 6.71153 15.4539 6.65471 15.2434C6.59775 15.0328 6.65814 14.8081 6.81313 14.6537L14.0358 7.48224C14.1914 7.32792 14.418 7.26768 14.6303 7.32409C14.8427 7.38064 15.0086 7.54532 15.0654 7.75619C15.1223 7.96706 15.0617 8.19197 14.9062 8.34631L14.9064 8.34644Z" fill="#FF772D"/>
</svg>
