<svg width="100" height="21" viewBox="0 0 100 21" fill="none" xmlns="http://www.w3.org/2000/svg">
<path d="M9.23915 2.84164C9.47864 2.10459 10.5214 2.10459 10.7608 2.84164L12.0655 6.85704C12.1726 7.18666 12.4798 7.40983 12.8264 7.40983H17.0484C17.8234 7.40983 18.1456 8.40152 17.5186 8.85704L14.1029 11.3387C13.8226 11.5424 13.7052 11.9035 13.8123 12.2331L15.117 16.2485C15.3565 16.9856 14.5129 17.5985 13.8859 17.143L10.4702 14.6613C10.1898 14.4576 9.81016 14.4576 9.52977 14.6613L6.11407 17.143C5.48709 17.5985 4.64351 16.9856 4.88299 16.2485L6.18768 12.2331C6.29478 11.9035 6.17745 11.5424 5.89706 11.3387L2.48135 8.85704C1.85438 8.40152 2.1766 7.40983 2.95158 7.40983H7.17363C7.52021 7.40983 7.82737 7.18666 7.93447 6.85704L9.23915 2.84164Z" fill="#FFC700"/>
<path d="M29.2392 2.84164C29.4786 2.10459 30.5214 2.10459 30.7608 2.84164L32.0655 6.85704C32.1726 7.18666 32.4798 7.40983 32.8264 7.40983H37.0484C37.8234 7.40983 38.1456 8.40152 37.5186 8.85704L34.1029 11.3387C33.8226 11.5424 33.7052 11.9035 33.8123 12.2331L35.117 16.2485C35.3565 16.9856 34.5129 17.5985 33.8859 17.143L30.4702 14.6613C30.1898 14.4576 29.8102 14.4576 29.5298 14.6613L26.1141 17.143C25.4871 17.5985 24.6435 16.9856 24.883 16.2485L26.1877 12.2331C26.2948 11.9035 26.1774 11.5424 25.8971 11.3387L22.4814 8.85704C21.8544 8.40152 22.1766 7.40983 22.9516 7.40983H27.1736C27.5202 7.40983 27.8274 7.18666 27.9345 6.85704L29.2392 2.84164Z" fill="#FFC700"/>
<path d="M49.2392 2.84164C49.4786 2.10459 50.5214 2.10459 50.7608 2.84164L52.0655 6.85704C52.1726 7.18666 52.4798 7.40983 52.8264 7.40983H57.0484C57.8234 7.40983 58.1456 8.40152 57.5186 8.85704L54.1029 11.3387C53.8226 11.5424 53.7052 11.9035 53.8123 12.2331L55.117 16.2485C55.3565 16.9856 54.5129 17.5985 53.8859 17.143L50.4702 14.6613C50.1898 14.4576 49.8102 14.4576 49.5298 14.6613L46.1141 17.143C45.4871 17.5985 44.6435 16.9856 44.883 16.2485L46.1877 12.2331C46.2948 11.9035 46.1774 11.5424 45.8971 11.3387L42.4814 8.85704C41.8544 8.40152 42.1766 7.40983 42.9516 7.40983H47.1736C47.5202 7.40983 47.8274 7.18666 47.9345 6.85704L49.2392 2.84164Z" fill="#FFC700"/>
<path d="M69.2392 2.84164C69.4786 2.10459 70.5214 2.10459 70.7608 2.84164L72.0655 6.85704C72.1726 7.18666 72.4798 7.40983 72.8264 7.40983H77.0484C77.8234 7.40983 78.1456 8.40152 77.5186 8.85704L74.1029 11.3387C73.8226 11.5424 73.7052 11.9035 73.8123 12.2331L75.117 16.2485C75.3565 16.9856 74.5129 17.5985 73.8859 17.143L70.4702 14.6613C70.1898 14.4576 69.8102 14.4576 69.5298 14.6613L66.1141 17.143C65.4871 17.5985 64.6435 16.9856 64.883 16.2485L66.1877 12.2331C66.2948 11.9035 66.1774 11.5424 65.8971 11.3387L62.4814 8.85704C61.8544 8.40152 62.1766 7.40983 62.9516 7.40983H67.1736C67.5202 7.40983 67.8274 7.18666 67.9345 6.85704L69.2392 2.84164Z" fill="#FFC700"/>
<path d="M89.2392 2.84164C89.4786 2.10459 90.5214 2.10459 90.7608 2.84164L92.0655 6.85704C92.1726 7.18666 92.4798 7.40983 92.8264 7.40983H97.0484C97.8234 7.40983 98.1456 8.40152 97.5186 8.85704L94.1029 11.3387C93.8226 11.5424 93.7052 11.9035 93.8123 12.2331L95.117 16.2485C95.3565 16.9856 94.5129 17.5985 93.8859 17.143L90.4702 14.6613C90.1898 14.4576 89.8102 14.4576 89.5298 14.6613L86.1141 17.143C85.4871 17.5985 84.6435 16.9856 84.883 16.2485L86.1877 12.2331C86.2948 11.9035 86.1774 11.5424 85.8971 11.3387L82.4814 8.85704C81.8544 8.40152 82.1766 7.40983 82.9516 7.40983H87.1736C87.5202 7.40983 87.8274 7.18666 87.9345 6.85704L89.2392 2.84164Z" fill="#FFC700"/>
</svg>
