<svg width="70" height="14" viewBox="0 0 70 14" fill="none" xmlns="http://www.w3.org/2000/svg">
<path d="M6.23916 2.34164C6.47864 1.60459 7.52136 1.60459 7.76085 2.34164L8.39199 4.28409C8.49909 4.61371 8.80625 4.83688 9.15283 4.83688H11.1953C11.9702 4.83688 12.2924 5.82857 11.6655 6.28409L10.0131 7.4846C9.73274 7.68831 9.61541 8.04941 9.72251 8.37902L10.3537 10.3215C10.5931 11.0585 9.74955 11.6714 9.12258 11.2159L7.47023 10.0154C7.18984 9.81169 6.81016 9.81169 6.52977 10.0154L4.87742 11.2159C4.25045 11.6714 3.40687 11.0585 3.64635 10.3215L4.27749 8.37902C4.38459 8.04941 4.26726 7.68831 3.98687 7.4846L2.33452 6.28409C1.70755 5.82857 2.02977 4.83688 2.80475 4.83688H4.84717C5.19375 4.83688 5.50091 4.61371 5.60801 4.28409L6.23916 2.34164Z" fill="#FF772D"/>
<path d="M20.2392 2.34164C20.4786 1.60459 21.5214 1.60459 21.7608 2.34164L22.392 4.28409C22.4991 4.61371 22.8063 4.83688 23.1528 4.83688H25.1953C25.9702 4.83688 26.2924 5.82857 25.6655 6.28409L24.0131 7.4846C23.7327 7.68831 23.6154 8.04941 23.7225 8.37902L24.3537 10.3215C24.5931 11.0585 23.7495 11.6714 23.1226 11.2159L21.4702 10.0154C21.1898 9.81169 20.8102 9.81169 20.5298 10.0154L18.8774 11.2159C18.2504 11.6714 17.4069 11.0585 17.6463 10.3215L18.2775 8.37902C18.3846 8.04941 18.2673 7.68831 17.9869 7.4846L16.3345 6.28409C15.7076 5.82857 16.0298 4.83688 16.8048 4.83688H18.8472C19.1937 4.83688 19.5009 4.61371 19.608 4.28409L20.2392 2.34164Z" fill="#FF772D"/>
<path d="M34.2392 2.34164C34.4786 1.60459 35.5214 1.60459 35.7608 2.34164L36.392 4.28409C36.4991 4.61371 36.8063 4.83688 37.1528 4.83688H39.1953C39.9702 4.83688 40.2924 5.82857 39.6655 6.28409L38.0131 7.4846C37.7327 7.68831 37.6154 8.04941 37.7225 8.37902L38.3537 10.3215C38.5931 11.0585 37.7495 11.6714 37.1226 11.2159L35.4702 10.0154C35.1898 9.81169 34.8102 9.81169 34.5298 10.0154L32.8774 11.2159C32.2504 11.6714 31.4069 11.0585 31.6463 10.3215L32.2775 8.37902C32.3846 8.04941 32.2673 7.68831 31.9869 7.4846L30.3345 6.28409C29.7076 5.82857 30.0298 4.83688 30.8048 4.83688H32.8472C33.1937 4.83688 33.5009 4.61371 33.608 4.28409L34.2392 2.34164Z" fill="#FF772D"/>
<path d="M48.2392 2.34164C48.4786 1.60459 49.5214 1.60459 49.7608 2.34164L50.392 4.28409C50.4991 4.61371 50.8063 4.83688 51.1528 4.83688H53.1953C53.9702 4.83688 54.2924 5.82857 53.6655 6.28409L52.0131 7.4846C51.7327 7.68831 51.6154 8.04941 51.7225 8.37902L52.3537 10.3215C52.5931 11.0585 51.7495 11.6714 51.1226 11.2159L49.4702 10.0154C49.1898 9.81169 48.8102 9.81169 48.5298 10.0154L46.8774 11.2159C46.2504 11.6714 45.4069 11.0585 45.6463 10.3215L46.2775 8.37902C46.3846 8.04941 46.2673 7.68831 45.9869 7.4846L44.3345 6.28409C43.7076 5.82857 44.0298 4.83688 44.8048 4.83688H46.8472C47.1937 4.83688 47.5009 4.61371 47.608 4.28409L48.2392 2.34164Z" fill="#FF772D"/>
<path d="M62.2392 2.34164C62.4786 1.60459 63.5214 1.60459 63.7608 2.34164L64.392 4.28409C64.4991 4.61371 64.8063 4.83688 65.1528 4.83688H67.1953C67.9702 4.83688 68.2924 5.82857 67.6655 6.28409L66.0131 7.4846C65.7327 7.68831 65.6154 8.04941 65.7225 8.37902L66.3537 10.3215C66.5931 11.0585 65.7495 11.6714 65.1226 11.2159L63.4702 10.0154C63.1898 9.81169 62.8102 9.81169 62.5298 10.0154L60.8774 11.2159C60.2504 11.6714 59.4069 11.0585 59.6463 10.3215L60.2775 8.37902C60.3846 8.04941 60.2673 7.68831 59.9869 7.4846L58.3345 6.28409C57.7076 5.82857 58.0298 4.83688 58.8048 4.83688H60.8472C61.1937 4.83688 61.5009 4.61371 61.608 4.28409L62.2392 2.34164Z" fill="#FF772D"/>
</svg>
