<svg width="83" height="88" viewBox="0 0 83 88" fill="none" xmlns="http://www.w3.org/2000/svg">
<path d="M41.4835 38.6129C41.6516 38.5573 41.7947 38.4475 41.8858 38.303L50.4792 24.4421C50.6088 24.2314 50.6155 23.9747 50.4971 23.761C50.3788 23.5473 50.152 23.4074 49.8957 23.3888L1.54398 20.3315C1.18212 20.309 0.851719 20.5329 0.75895 20.8638C0.665816 21.1953 0.83689 21.5385 1.16576 21.68L40.9378 38.6109C41.1122 38.6758 41.3072 38.6767 41.4835 38.6129ZM48.5916 24.7213L40.9592 37.0303L5.61247 22.004L48.5916 24.7213Z" fill="#24A2DF" fill-opacity="0.6"/>
<path d="M24.9328 58.3869C25.0656 58.3419 25.1826 58.2629 25.2715 58.159L38.5474 42.7062C38.6842 42.547 38.7422 42.3412 38.7068 42.1409C38.6709 41.9414 38.5451 41.7664 38.3611 41.6611L1.86743 20.4602C1.57412 20.2854 1.18926 20.3252 0.937919 20.5558C0.686779 20.7869 0.635845 21.1479 0.814518 21.4278L24.0443 58.0858C24.1699 58.2835 24.3917 58.4099 24.6376 58.4233C24.7378 58.4303 24.8385 58.4175 24.9338 58.3862L24.9328 58.3869ZM36.8664 42.451L24.8207 56.4729L3.74553 23.1553L36.8664 42.451Z" fill="#24A2DF" fill-opacity="0.6"/>
<path d="M45.9523 49.6201C46.202 49.5367 46.3886 49.3369 46.4434 49.0936C46.4982 48.8502 46.4139 48.5988 46.2203 48.4318L38.5075 41.7373C38.3617 41.6112 38.168 41.5454 37.9687 41.5538C37.7697 41.5627 37.5815 41.6459 37.4457 41.7845C37.1627 42.0735 37.1793 42.5204 37.4832 42.783L43.3911 47.9098L34.744 46.6781L34.7442 46.6786C34.3342 46.6214 33.9486 46.8876 33.8827 47.2739C33.8169 47.6601 34.096 48.0193 34.5059 48.0766L45.5866 49.6462C45.7083 49.6656 45.8341 49.6566 45.9523 49.6201Z" fill="#24A2DF" fill-opacity="0.6"/>
<path d="M45.9499 49.62C46.136 49.551 46.2867 49.4154 46.3681 49.2428C46.4492 49.071 46.4543 48.8762 46.3831 48.7019L41.9196 37.6859C41.7673 37.326 41.3355 37.1503 40.9479 37.2897C40.7617 37.3587 40.611 37.4943 40.5302 37.6667C40.4488 37.8392 40.4434 38.0335 40.5154 38.2081L44.9789 49.2241C45.05 49.3984 45.1922 49.5379 45.3747 49.6124C45.5565 49.6865 45.7638 49.6895 45.9499 49.62Z" fill="#24A2DF" fill-opacity="0.6"/>
<path d="M80.4262 67.468C80.705 67.3748 80.9029 67.1376 80.9304 66.861C80.9587 66.5848 80.8126 66.3204 80.5562 66.1854L52.6894 51.3831C52.3294 51.1925 51.8701 51.3149 51.6631 51.6557C51.4561 51.9965 51.5809 52.4276 51.9407 52.6175L79.7961 67.3891C79.9823 67.5022 80.213 67.5311 80.4263 67.4684L80.4262 67.468Z" fill="#24A2DF" fill-opacity="0.6"/>
<path d="M64.5878 43.7919C64.8666 43.6987 65.0637 43.4611 65.092 43.1849C65.1201 42.9082 64.9734 42.6439 64.7175 42.5087L51.712 35.615C51.352 35.4245 50.8926 35.5468 50.6857 35.8877C50.4787 36.2285 50.6032 36.659 50.9632 36.8495L63.969 43.7438C64.1572 43.8427 64.3825 43.8606 64.5878 43.7919Z" fill="#24A2DF" fill-opacity="0.6"/>
<path d="M52.748 66.8507C53.0274 66.7573 53.2246 66.5203 53.2527 66.2435C53.2803 65.967 53.1342 65.7025 52.8783 65.5673L34.5461 55.8744L34.5463 55.875C34.1863 55.6845 33.7264 55.807 33.52 56.1476C33.313 56.4885 33.4378 56.9195 33.7975 57.1095L52.0876 66.8164C52.2892 66.9232 52.5331 66.9361 52.748 66.8507Z" fill="#24A2DF" fill-opacity="0.6"/>
<path d="M70.1888 69.8636C70.4676 69.7704 70.6654 69.5332 70.693 69.2566C70.7211 68.9799 70.575 68.7154 70.3191 68.5802L42.8966 54.0155L42.896 54.0157C42.5362 53.8257 42.0767 53.9475 41.8699 54.2889C41.6629 54.6297 41.7875 55.0602 42.1475 55.2507L69.57 69.8154L69.5705 69.8152C69.7584 69.9149 69.984 69.932 70.1888 69.8636Z" fill="#24A2DF" fill-opacity="0.6"/>
<path d="M79.1753 58.7551C79.4547 58.6617 79.6519 58.4246 79.68 58.1479C79.7084 57.8717 79.5617 57.6074 79.3058 57.4722L51.6083 42.7703C51.2478 42.58 50.7884 42.7023 50.5814 43.0431C50.375 43.3838 50.4992 43.815 50.8596 44.0048L78.566 58.7037C78.7513 58.8018 78.9734 58.8201 79.176 58.7548L79.1753 58.7551Z" fill="#24A2DF" fill-opacity="0.6"/>
</svg>
