<svg width="116" height="108" viewBox="0 0 116 108" fill="none" xmlns="http://www.w3.org/2000/svg">
<path opacity="0.7" d="M47.4412 54.49C47.7524 53.9379 47.8464 53.2902 47.7045 52.6732C47.5625 52.0559 47.1949 51.5133 46.6729 51.1496L43.8655 49.1869H43.8658C43.7118 49.0787 43.6249 48.8997 43.6351 48.713L43.8403 45.3088C43.8797 44.6771 43.6813 44.0534 43.2838 43.5587C42.8864 43.0636 42.3182 42.7328 41.6893 42.6302L38.3013 42.071H38.3009C38.115 42.0411 37.9578 41.917 37.8868 41.7433L36.584 38.5886C36.3434 38.0026 35.892 37.5259 35.3177 37.2514C34.7436 36.9766 34.0866 36.9234 33.4752 37.1017L30.1795 38.0576C29.9985 38.1109 29.8023 38.0665 29.6624 37.9407L27.1098 35.6595C26.6367 35.2352 26.0216 35.0002 25.3843 35.0002C24.747 35.0002 24.132 35.2352 23.6589 35.6595L21.107 37.9407C20.9671 38.0661 20.7713 38.1105 20.5903 38.0576L17.2934 37.1017H17.2938C16.682 36.9234 16.0254 36.9766 15.4513 37.2511C14.8767 37.5259 14.4257 38.0023 14.1848 38.5882L12.882 41.7433C12.8099 41.9163 12.6534 42.04 12.4678 42.071L9.08088 42.6302C8.45132 42.7328 7.88276 43.0633 7.48538 43.5583C7.08756 44.0534 6.88918 44.6774 6.92858 45.3092L7.13369 48.7126C7.14576 48.8997 7.05846 49.0794 6.90374 49.1865L4.09595 51.1496C3.57392 51.5132 3.20662 52.0558 3.06463 52.6732C2.92268 53.2902 3.01637 53.9379 3.32795 54.49L5.00012 57.4682C5.09238 57.6317 5.09238 57.8311 5.00012 57.9946L3.32795 60.9732V60.9728C3.01636 61.5253 2.92268 62.173 3.06463 62.79C3.20623 63.407 3.57388 63.9499 4.09595 64.3136L6.90374 66.277V66.2767C7.05846 66.3838 7.14577 66.5635 7.13369 66.7502L6.92858 70.1544C6.88954 70.7862 7.08756 71.4098 7.48538 71.9049C7.88285 72.3996 8.45102 72.7305 9.08024 72.833L12.4679 73.3922C12.6535 73.4232 12.81 73.5469 12.8821 73.7199L14.1848 76.8746C14.4254 77.4606 14.8769 77.9373 15.4511 78.2118C16.0256 78.4866 16.6822 78.5398 17.294 78.3616L20.5908 77.4056H20.5905C20.7714 77.352 20.9677 77.3964 21.1072 77.5226L23.6591 79.8037C24.1322 80.2283 24.7472 80.4633 25.3845 80.4633C26.0222 80.4633 26.6372 80.2283 27.1099 79.8037L29.663 77.5226C29.8025 77.3964 29.9983 77.352 30.1793 77.4056L33.4754 78.3616C34.0869 78.5398 34.7434 78.4863 35.3176 78.2118C35.8921 77.937 36.3432 77.4606 36.5841 76.875L37.8862 73.7206C37.9575 73.5469 38.1147 73.4222 38.301 73.3922L41.6891 72.833H41.6894C42.3183 72.7305 42.8868 72.3996 43.2843 71.9045C43.6814 71.4095 43.8798 70.7858 43.8404 70.154L43.6352 66.7506C43.625 66.5639 43.7116 66.3849 43.8652 66.2763L46.673 64.3133V64.3137C47.195 63.95 47.5627 63.407 47.7046 62.79C47.8462 62.173 47.7525 61.5254 47.4413 60.9729L45.7691 57.9943L45.7687 57.9947C45.6765 57.8312 45.6765 57.6321 45.7687 57.4686L47.4412 54.49ZM19.873 47.5767C21.124 47.5767 22.3234 48.0703 23.2078 48.9484C24.0921 49.8268 24.5889 51.0178 24.5889 52.2595C24.5889 53.5016 24.0918 54.6926 23.2074 55.5707C22.323 56.4487 21.1235 56.942 19.8726 56.942C18.6216 56.942 17.4221 56.4487 16.5378 55.5707C15.6535 54.6926 15.1566 53.5016 15.1566 52.2595C15.158 51.0178 15.6552 49.8275 16.5396 48.9498C17.424 48.0718 18.6228 47.5781 19.873 47.5767ZM30.8957 67.8862C29.6447 67.8862 28.4452 67.3929 27.5605 66.5144C26.6762 65.6364 26.1794 64.4453 26.1794 63.2033C26.1794 61.9616 26.6762 60.7702 27.5605 59.8922C28.4453 59.0141 29.6447 58.5208 30.8953 58.5208C32.1463 58.5208 33.3458 59.0141 34.2305 59.8922C35.1149 60.7706 35.6117 61.9616 35.6117 63.2037C35.6103 64.4451 35.1127 65.6349 34.2287 66.5131C33.3447 67.3908 32.1459 67.8845 30.8956 67.8863L30.8957 67.8862ZM35.419 49.9111L17.5072 67.6949C17.1214 68.0766 16.56 68.2249 16.034 68.0847C15.5081 67.9444 15.0972 67.5364 14.9563 67.0142C14.815 66.492 14.9648 65.9349 15.3491 65.5519L33.2601 47.7681C33.6458 47.3854 34.2076 47.236 34.7343 47.3759C35.2609 47.5162 35.6722 47.9245 35.8131 48.4475C35.9544 48.9704 35.8039 49.5281 35.4185 49.9108L35.419 49.9111Z" fill="#FF772D"/>
<g filter="url(#filter0_d_1168_10717)">
<path d="M79.9936 116.657C104.431 116.657 124.242 96.7687 124.242 72.2352C124.242 47.7017 104.431 27.8132 79.9936 27.8132C55.5559 27.8132 35.7451 47.7017 35.7451 72.2352C35.7451 96.7687 55.5559 116.657 79.9936 116.657Z" fill="url(#paint0_linear_1168_10717)"/>
<path fill-rule="evenodd" clip-rule="evenodd" d="M55.7747 71.7664C68.674 66.1242 77.2755 62.4046 81.5795 60.6076C93.8676 55.4763 96.4209 54.585 98.0852 54.5556C98.4514 54.5491 99.2698 54.6402 99.7999 55.072C100.248 55.4366 100.371 55.9294 100.43 56.2749C100.489 56.6207 100.562 57.4084 100.504 58.0239C99.8378 65.0479 96.9563 82.0937 95.4904 89.9609C94.8702 93.2897 93.649 94.406 92.4666 94.5152C89.8969 94.7525 87.9457 92.8103 85.4569 91.1727C81.5625 88.6097 79.3624 87.0144 75.5821 84.5134C71.2135 81.6232 74.0456 80.0348 76.5353 77.4387C77.1869 76.7592 88.5084 66.4209 88.7276 65.483C88.7551 65.3657 88.7805 64.9285 88.5217 64.6977C88.263 64.4669 87.8812 64.5457 87.6055 64.6085C87.215 64.6975 80.9935 68.8258 68.9414 76.9933C67.1755 78.2107 65.5759 78.8039 64.1428 78.7728C62.5629 78.7386 59.5238 77.876 57.2645 77.1386C54.4935 76.2345 52.2911 75.7564 52.4828 74.2205C52.5827 73.4205 53.68 72.6026 55.7747 71.7664Z" fill="white"/>
</g>
<defs>
<filter id="filter0_d_1168_10717" x="0.745117" y="0.813202" width="158.497" height="158.844" filterUnits="userSpaceOnUse" color-interpolation-filters="sRGB">
<feFlood flood-opacity="0" result="BackgroundImageFix"/>
<feColorMatrix in="SourceAlpha" type="matrix" values="0 0 0 0 0 0 0 0 0 0 0 0 0 0 0 0 0 0 127 0" result="hardAlpha"/>
<feOffset dy="8"/>
<feGaussianBlur stdDeviation="17.5"/>
<feComposite in2="hardAlpha" operator="out"/>
<feColorMatrix type="matrix" values="0 0 0 0 0.141176 0 0 0 0 0.635294 0 0 0 0 0.878431 0 0 0 0.2 0"/>
<feBlend mode="normal" in2="BackgroundImageFix" result="effect1_dropShadow_1168_10717"/>
<feBlend mode="normal" in="SourceGraphic" in2="effect1_dropShadow_1168_10717" result="shape"/>
</filter>
<linearGradient id="paint0_linear_1168_10717" x1="79.9936" y1="27.8132" x2="79.9936" y2="115.998" gradientUnits="userSpaceOnUse">
<stop stop-color="#2AABEE"/>
<stop offset="1" stop-color="#229ED9"/>
</linearGradient>
</defs>
</svg>
