<svg width="22" height="32" viewBox="0 0 22 32" fill="none" xmlns="http://www.w3.org/2000/svg">
<path d="M6.47081 27.0105C6.23286 27.5909 5.92817 28.1712 5.93978 28.8096C5.98707 29.4696 6.27519 30.0893 6.74938 30.5508C7.2142 31.0581 7.78997 31.4512 8.43176 31.6994C9.07355 31.9476 9.764 32.0441 10.4492 31.9814C11.1332 31.9037 11.7838 31.6437 12.333 31.2287C12.8823 30.8137 13.31 30.2589 13.5716 29.6222C13.663 29.3991 13.7122 29.161 13.7167 28.9199C13.693 28.6106 13.6236 28.3064 13.5107 28.0174C13.0933 26.7247 12.9153 25.3666 12.9855 24.01C13.0319 23.1656 13.1073 22.1557 12.437 21.6392C12.2309 21.495 11.9996 21.3906 11.7551 21.3316C10.5714 20.9949 9.31726 20.9949 8.13357 21.3316C6.79292 21.7117 7.16725 22.4314 7.16145 23.5631C7.15287 24.7457 6.91845 25.9158 6.47081 27.0105Z" fill="url(#paint0_linear_1055_5772)"/>
<path d="M9.40395 26.1515C10.2745 26.5084 11.3453 26.4765 12.0156 25.841C12.6859 25.2055 12.802 24.2566 12.8862 23.3628L13.0109 22.1353C13.0288 22.0467 13.0197 21.9547 12.9848 21.8712C12.9402 21.8159 12.8836 21.7714 12.8192 21.7412C12.7549 21.7111 12.6845 21.696 12.6134 21.6971C11.5537 21.5788 10.4857 21.5517 9.42136 21.6159C8.71331 21.6594 7.70057 21.6159 7.33493 22.3588C6.66751 23.7516 8.21419 25.6494 9.40395 26.1515Z" fill="url(#paint1_linear_1055_5772)"/>
<path d="M3.14049 18.8475C3.56176 19.8921 4.14978 20.8613 4.88159 21.7175C6.68074 23.6878 9.67835 24.3494 12.2436 23.6124C14.8088 22.8753 16.9185 20.8788 18.0792 18.4819C19.2399 16.085 19.5562 13.3253 19.2777 10.6701C19.121 9.21921 18.7698 7.70444 17.8616 6.5437C17.1162 5.64326 16.1418 4.96055 15.041 4.56754C13.0669 3.80617 10.8898 3.75363 8.88137 4.41888C6.87291 5.08413 5.15765 6.42593 4.02845 8.21517C1.88979 11.6103 1.51836 15.1854 3.14049 18.8475Z" fill="url(#paint2_linear_1055_5772)"/>
<path d="M0.709314 14.5676C0.581217 14.7529 0.495557 14.9641 0.45844 15.1863C0.421324 15.4085 0.433659 15.6362 0.494571 15.8531C0.62117 16.2858 0.838841 16.6866 1.13298 17.0283C1.21637 17.1609 1.32658 17.2746 1.45652 17.362C1.58645 17.4495 1.73324 17.5088 1.88746 17.5361C2.03755 17.5289 2.18361 17.4852 2.31304 17.4089C2.44247 17.3325 2.55137 17.2258 2.63033 17.098C3.57053 15.8095 1.91648 12.9977 0.709314 14.5676Z" fill="url(#paint3_linear_1055_5772)"/>
<path d="M19.7032 13.6684C19.9257 13.6595 20.1463 13.7129 20.3401 13.8226C20.5339 13.9324 20.6932 14.094 20.8001 14.2894C21.0045 14.6885 21.0472 15.1511 20.9191 15.5808C20.7868 16.0074 20.5685 16.4024 20.2777 16.7415C20.0318 17.0826 19.6935 17.3464 19.3027 17.5018C19.1063 17.5738 18.8924 17.5829 18.6906 17.5278C18.4889 17.4726 18.3093 17.356 18.1768 17.1942C18.0903 17.0552 18.0293 16.9019 17.9969 16.7415C17.7386 15.6997 18.4322 13.7845 19.7032 13.6684Z" fill="url(#paint4_linear_1055_5772)"/>
<path d="M3.6231 20.389C3.77875 20.9186 4.00625 21.4244 4.29924 21.8922C4.85929 22.7279 5.75016 23.2967 6.64392 23.7436C7.12232 23.9913 7.62637 24.1859 8.14708 24.3239C8.88341 24.4772 9.63578 24.5396 10.3873 24.5097C11.9833 24.4952 13.5793 24.4023 15.1725 24.2978C15.5229 24.3057 15.8695 24.2238 16.1794 24.0599C16.4469 23.8585 16.6594 23.593 16.7975 23.288C17.6962 21.7257 18.2549 19.9913 18.437 18.1982C18.4525 17.5684 18.4999 16.9398 18.5792 16.3149C18.7446 15.3921 19.1886 14.4867 19.0609 13.5581C18.6605 13.6626 18.4428 14.0804 18.2774 14.4577C17.9437 15.2267 17.6303 16.0044 17.256 16.753C17.0423 17.2191 16.7585 17.6497 16.4144 18.0298C15.57 18.9004 14.2874 19.1906 13.0744 19.2834C12.1481 19.3454 11.2194 19.3608 10.2915 19.3299C8.84062 19.3009 7.27363 19.2254 6.07517 18.3868C4.62424 17.3653 4.11062 15.334 2.59295 14.4258C2.42755 14.7159 2.68001 15.186 2.70322 15.4965C2.74385 16.0769 2.79028 16.6312 2.87443 17.1941C3.03213 18.2785 3.2826 19.3474 3.6231 20.389Z" fill="url(#paint5_linear_1055_5772)"/>
<path d="M11.7875 20.441L9.8897 20.3771C9.59699 20.3474 9.30131 20.375 9.01915 20.4584C8.87783 20.5012 8.75143 20.583 8.65443 20.6944C8.55744 20.8058 8.49377 20.9422 8.4707 21.0881C8.47233 21.3253 8.5553 21.5547 8.70575 21.7381C8.7811 21.8638 8.87956 21.974 8.99594 22.0631C9.23961 22.1925 9.51711 22.2442 9.79104 22.2111L13.2036 22.1385C13.2959 22.1438 13.3879 22.1248 13.4706 22.0834C13.5511 22.0257 13.6086 21.9414 13.6331 21.8454C13.7132 21.6025 13.721 21.3416 13.6556 21.0943C13.5901 20.847 13.4543 20.6241 13.2645 20.4526C12.9047 20.1798 12.2373 20.4555 11.7875 20.441Z" fill="url(#paint6_linear_1055_5772)"/>
<path d="M2.7015 15.1218C3.04392 15.0318 3.07875 14.5646 3.05843 14.2106C2.95412 12.4177 3.34249 10.6304 4.18145 9.04241C4.79373 9.59956 5.75134 9.28326 6.53484 9.01339C9.88066 7.85265 13.5283 8.23569 17.0511 8.54619C17.1748 8.52775 17.301 8.5538 17.4073 8.61969C17.5136 8.68558 17.593 8.78705 17.6315 8.90602C18.4571 10.6224 18.9072 12.4951 18.9518 14.3992C19.242 14.1671 19.8891 13.9842 20.0865 13.7086C20.2257 13.517 20.2054 12.9831 20.307 12.7277C20.5972 12.0197 21.2066 11.5032 21.3807 10.7313C21.7057 9.28036 20.4231 7.88167 20.6494 6.42494C20.7568 5.7256 21.2008 5.12782 21.4155 4.45459C21.5674 3.96968 21.6014 3.45551 21.5146 2.95482C21.4278 2.45414 21.2227 1.98141 20.9164 1.57596C20.4985 1.03621 19.7556 0.621253 19.1434 0.911437C18.9402 1.0043 18.7748 1.1668 18.563 1.26546C17.675 1.70074 16.7609 0.80987 15.8817 0.360084C14.5062 -0.345064 12.7941 0.0699035 11.4767 0.876616C11.0617 1.13198 10.6264 1.43957 10.1389 1.41926C9.83578 1.37658 9.54168 1.28443 9.26838 1.14649C7.4141 0.412319 5.17677 1.03331 3.76938 2.44361C2.36198 3.85391 1.73809 5.92582 1.85416 7.9252C1.89479 8.62164 2.01666 9.34129 1.79032 10C1.41888 11.0911 1.09679 12.7045 1.54367 13.8421C1.64814 14.1119 2.47806 15.1769 2.7015 15.1218Z" fill="url(#paint7_linear_1055_5772)"/>
<defs>
<linearGradient id="paint0_linear_1055_5772" x1="5.94558" y1="26.5288" x2="13.7225" y2="26.5288" gradientUnits="userSpaceOnUse">
<stop stop-color="#E5C6D6"/>
<stop offset="0.42" stop-color="#EAD4D0"/>
<stop offset="1" stop-color="#F0E9CB"/>
</linearGradient>
<linearGradient id="paint1_linear_1055_5772" x1="8.98608" y1="26.5055" x2="12.683" y2="15.7774" gradientUnits="userSpaceOnUse">
<stop stop-color="#010101" stop-opacity="0"/>
<stop offset="0.95" stop-color="#010101"/>
</linearGradient>
<linearGradient id="paint2_linear_1055_5772" x1="2.13645" y1="13.9318" x2="19.3792" y2="13.9318" gradientUnits="userSpaceOnUse">
<stop stop-color="#E5C6D6"/>
<stop offset="0.42" stop-color="#EAD4D0"/>
<stop offset="1" stop-color="#F0E9CB"/>
</linearGradient>
<linearGradient id="paint3_linear_1055_5772" x1="0.44234" y1="15.8212" x2="2.90891" y2="15.8212" gradientUnits="userSpaceOnUse">
<stop stop-color="#E5C6D6"/>
<stop offset="0.42" stop-color="#EAD4D0"/>
<stop offset="1" stop-color="#F0E9CB"/>
</linearGradient>
<linearGradient id="paint4_linear_1055_5772" x1="17.9447" y1="15.6098" x2="20.9887" y2="15.6098" gradientUnits="userSpaceOnUse">
<stop stop-color="#E5C6D6"/>
<stop offset="0.42" stop-color="#EAD4D0"/>
<stop offset="1" stop-color="#F0E9CB"/>
</linearGradient>
<linearGradient id="paint5_linear_1055_5772" x1="2.53201" y1="19.0339" x2="19.0841" y2="19.0339" gradientUnits="userSpaceOnUse">
<stop stop-color="#010101" stop-opacity="0"/>
<stop offset="0.95" stop-color="#010101"/>
</linearGradient>
<linearGradient id="paint6_linear_1055_5772" x1="8.4649" y1="21.2709" x2="13.6969" y2="21.2709" gradientUnits="userSpaceOnUse">
<stop stop-color="#E5C6D6"/>
<stop offset="0.42" stop-color="#EAD4D0"/>
<stop offset="1" stop-color="#F0E9CB"/>
</linearGradient>
<linearGradient id="paint7_linear_1055_5772" x1="1.32313" y1="7.55956" x2="21.5519" y2="7.55956" gradientUnits="userSpaceOnUse">
<stop stop-color="#010101" stop-opacity="0"/>
<stop offset="0.95" stop-color="#010101"/>
</linearGradient>
</defs>
</svg>
