<svg width="145" height="145" viewBox="0 0 145 145" fill="none" xmlns="http://www.w3.org/2000/svg">
<g filter="url(#filter0_f_580_11440)">
<rect y="26.0791" width="121" height="121" rx="30.25" transform="rotate(-12.4466 0 26.0791)" fill="#9146FF" fill-opacity="0.1"/>
<g clip-path="url(#clip0_580_11440)">
<path d="M99.6271 63.0937L90.8579 76.8303L79.605 79.314L71.9319 91.3336L69.7586 81.4873L57.0991 84.2815L47.7852 42.083L92.7968 32.1481L99.6271 63.0937Z" fill="white"/>
<path d="M43.7302 37.0789L32.7687 54.2497L43.9455 104.888L60.8248 101.162L63.9295 115.228L74.891 98.0576L86.1439 95.5739L105.875 64.6665L97.1816 25.2813L43.7302 37.0789ZM99.6272 63.0951L90.858 76.8318L79.6051 79.3155L71.932 91.335L69.7588 81.4887L57.0993 84.2829L47.7853 42.0845L92.797 32.1496L99.6272 63.0951Z" fill="#9146FF"/>
<path d="M86.5288 43.8592L80.9023 45.1011L84.6279 61.9805L90.2544 60.7386L86.5288 43.8592Z" fill="#9146FF"/>
<path d="M71.0581 47.2738L65.4316 48.5156L69.1572 65.395L74.7837 64.1531L71.0581 47.2738Z" fill="#9146FF"/>
</g>
</g>
<defs>
<filter id="filter0_f_580_11440" x="-6" y="-6" width="156.234" height="156.235" filterUnits="userSpaceOnUse" color-interpolation-filters="sRGB">
<feFlood flood-opacity="0" result="BackgroundImageFix"/>
<feBlend mode="normal" in="SourceGraphic" in2="BackgroundImageFix" result="shape"/>
<feGaussianBlur stdDeviation="3" result="effect1_foregroundBlur_580_11440"/>
</filter>
<clipPath id="clip0_580_11440">
<rect width="80.6667" height="80.6667" fill="white" transform="translate(24.0391 41.4253) rotate(-12.4466)"/>
</clipPath>
</defs>
</svg>
