<svg width="175" height="175" viewBox="0 0 175 175" fill="none" xmlns="http://www.w3.org/2000/svg">
<g filter="url(#filter0_f_580_11428)">
<rect x="3.66992" y="22.3989" width="150.034" height="150.034" rx="37.5084" transform="rotate(-7.43067 3.66992 22.3989)" fill="#0077FF" fill-opacity="0.1"/>
<g clip-path="url(#clip0_580_11428)">
<path d="M37.9083 91.5681C34.9813 69.1255 33.5178 57.9044 39.5805 50.0231C45.6432 42.1419 56.8643 40.6784 79.3068 37.7514L83.2741 37.234C105.717 34.307 116.938 32.8435 124.819 38.9062C132.7 44.9688 134.164 56.19 137.091 78.6325L137.608 82.5998C140.535 105.042 141.999 116.263 135.936 124.145C129.873 132.026 118.652 133.49 96.2097 136.417L92.2424 136.934C69.7999 139.861 58.5787 141.324 50.6975 135.262C42.8162 129.199 41.3527 117.978 38.4257 95.5354L37.9083 91.5681Z" fill="#0077FF"/>
<path d="M93.7916 108.53C71.1863 111.478 56.2716 97.6627 52.3711 71.9453L63.6944 70.4685C66.5349 89.3473 75.9282 96.2759 82.7559 97.0665L79.0262 68.4689L89.6887 67.0783L91.8177 83.4021C98.2556 81.8479 104.145 73.5147 105.392 65.0303L116.054 63.6397C115.592 73.955 109.124 82.3638 104.233 86.1119C109.846 87.9015 119.164 93.2848 123.919 104.601L112.182 106.132C108.637 98.6085 101.563 93.3528 93.149 93.6096L95.0732 108.363L93.7916 108.53Z" fill="white"/>
</g>
</g>
<defs>
<filter id="filter0_f_580_11428" x="-4.31489" y="-4.98921" width="184.147" height="184.147" filterUnits="userSpaceOnUse" color-interpolation-filters="sRGB">
<feFlood flood-opacity="0" result="BackgroundImageFix"/>
<feBlend mode="normal" in="SourceGraphic" in2="BackgroundImageFix" result="shape"/>
<feGaussianBlur stdDeviation="3.99241" result="effect1_foregroundBlur_580_11428"/>
</filter>
<clipPath id="clip0_580_11428">
<rect width="100.023" height="100.023" fill="white" transform="translate(31.6992 43.9604) rotate(-7.43067)"/>
</clipPath>
</defs>
</svg>
