<svg width="111" height="111" viewBox="0 0 111 111" fill="none" xmlns="http://www.w3.org/2000/svg">
<rect x="26.0996" width="88.7075" height="88.7075" rx="22.1769" transform="rotate(17.1108 26.0996 0)" fill="#FF0000" fill-opacity="0.1"/>
<g clip-path="url(#clip0_580_11424)">
<path d="M86.5816 50.5765C86.6328 49.2734 86.3416 47.98 85.7368 46.8258C85.1321 45.6716 84.2351 44.697 83.1356 43.9996C79.0833 41.4488 61.4205 36.0114 61.4205 36.0114C61.4205 36.0114 43.7578 30.574 38.9724 30.4041C37.6711 30.3624 36.3813 30.6638 35.2322 31.2781C34.083 31.8924 33.1148 32.7981 32.4244 33.9044C29.8737 37.9872 27.0191 47.26 27.0191 47.26C27.0191 47.26 24.1645 56.5329 23.9774 61.3432C23.9261 62.6464 24.2173 63.9398 24.8221 65.0939C25.4268 66.2482 26.3238 67.2228 27.4232 67.9202C31.4756 70.471 49.1384 75.9084 49.1384 75.9084C49.1384 75.9084 66.8011 81.3458 71.5865 81.5157C72.8878 81.5573 74.1776 81.2559 75.3267 80.6416C76.4759 80.0274 77.4441 79.1217 78.1346 78.0153C80.6852 73.9326 83.5398 64.6597 83.5398 64.6597C83.5398 64.6597 86.3944 55.3869 86.5816 50.5765Z" fill="#FF0000"/>
<path d="M45.9095 61.2744L63.2741 57.4019L51.0938 44.4341L45.9095 61.2744Z" fill="white"/>
</g>
<defs>
<clipPath id="clip0_580_11424">
<rect width="59.1384" height="59.1384" fill="white" transform="translate(35.8789 18.48) rotate(17.1108)"/>
</clipPath>
</defs>
</svg>
