<svg width="12" height="12" viewBox="0 0 12 12" fill="none" xmlns="http://www.w3.org/2000/svg">
<path fill-rule="evenodd" clip-rule="evenodd" d="M6.00033 0.166504C6.64466 0.166504 7.16699 0.688838 7.16699 1.33317V4.83317H10.667C11.3113 4.83317 11.8337 5.35551 11.8337 5.99984C11.8337 6.64417 11.3113 7.1665 10.667 7.1665H7.16699L7.16699 10.6665C7.16699 11.3108 6.64466 11.8332 6.00033 11.8332C5.35599 11.8332 4.83366 11.3108 4.83366 10.6665L4.83366 7.1665H1.33366C0.689327 7.1665 0.166992 6.64417 0.166992 5.99984C0.166992 5.35551 0.689327 4.83317 1.33366 4.83317H4.83366V1.33317C4.83366 0.688838 5.35599 0.166504 6.00033 0.166504Z" fill="#FF772D"/>
</svg>
