<svg width="24" height="24" viewBox="0 0 24 24" fill="none" xmlns="http://www.w3.org/2000/svg">
<path opacity="0.6" d="M18.0002 14.0771C20.1482 13.6607 21.6002 12.8891 21.6002 11.9999V10.3991C20.7302 11.0135 19.4522 11.4335 18.0002 11.6927V14.0771ZM17.8238 10.5107C20.0738 10.1063 21.6002 9.3119 21.6002 8.3999V6.7991C20.2682 7.7399 17.981 8.2463 15.5738 8.3663C16.6802 8.9027 17.4938 9.6227 17.8238 10.5107ZM21.6002 4.7999C21.6002 3.4763 18.3746 2.3999 14.4002 2.3999C10.4246 2.3999 7.2002 3.4763 7.2002 4.7999C7.2002 6.1235 10.4258 7.1999 14.4002 7.1999C18.3758 7.1999 21.6002 6.1235 21.6002 4.7999Z" fill="#FFC000"/>
<path d="M9.60039 14.3999C13.576 14.3999 16.8004 13.0571 16.8004 11.3999C16.8004 9.7427 13.5748 8.3999 9.60039 8.3999C5.62479 8.3999 2.40039 9.7427 2.40039 11.3999C2.40039 13.0571 5.62599 14.3999 9.60039 14.3999ZM2.40039 17.5991V19.1999C2.40039 20.5235 5.62599 21.5999 9.60039 21.5999C13.576 21.5999 16.8004 20.5235 16.8004 19.1999V17.5991C15.2524 18.6899 12.4204 19.1999 9.60039 19.1999C6.78039 19.1999 3.94839 18.6899 2.40039 17.5991ZM2.40039 13.6643V15.5999C2.40039 16.9235 5.62599 17.9999 9.60039 17.9999C13.576 17.9999 16.8004 16.9235 16.8004 15.5999V13.6643C15.2524 14.9399 12.4168 15.5999 9.60039 15.5999C6.78399 15.5999 3.94839 14.9399 2.40039 13.6643Z" fill="#FFC000"/>
</svg>
