<svg width="32" height="32" viewBox="0 0 32 32" fill="none" xmlns="http://www.w3.org/2000/svg">
<path fill-rule="evenodd" clip-rule="evenodd" d="M2.66699 10.6668C2.66699 7.72131 5.05481 5.3335 8.00033 5.3335H24.0003C26.9458 5.3335 29.3337 7.72131 29.3337 10.6668V21.3335C29.3337 24.279 26.9458 26.6668 24.0003 26.6668H8.00033C5.05481 26.6668 2.66699 24.279 2.66699 21.3335V10.6668ZM8.00033 8.00016C6.52757 8.00016 5.33366 9.19407 5.33366 10.6668V21.3335C5.33366 22.8063 6.52757 24.0002 8.00033 24.0002H24.0003C25.4731 24.0002 26.667 22.8063 26.667 21.3335V10.6668C26.667 9.19407 25.4731 8.00016 24.0003 8.00016H8.00033Z" fill="#B0B0B0"/>
<path fill-rule="evenodd" clip-rule="evenodd" d="M28 14.6667H4V12H28V14.6667Z" fill="#B0B0B0"/>
<path fill-rule="evenodd" clip-rule="evenodd" d="M17.333 19.9998C17.333 19.2635 17.93 18.6665 18.6663 18.6665L22.6663 18.6665C23.4027 18.6665 23.9997 19.2635 23.9997 19.9998C23.9997 20.7362 23.4027 21.3332 22.6663 21.3332L18.6663 21.3332C17.93 21.3332 17.333 20.7362 17.333 19.9998Z" fill="#B0B0B0"/>
</svg>
