<svg width="24" height="25" viewBox="0 0 24 25" fill="none" xmlns="http://www.w3.org/2000/svg">
<path fill-rule="evenodd" clip-rule="evenodd" d="M18.0176 5.5C17.7571 5.5 17.5072 5.6035 17.323 5.78773L6.42506 16.6856C6.04059 17.0701 5.76783 17.5519 5.63596 18.0794L5.37439 19.1256L6.42066 18.8641C6.94816 18.7322 7.4299 18.4594 7.81437 18.075L18.7123 7.17704C18.8035 7.08582 18.8759 6.97752 18.9252 6.85833C18.9746 6.73915 19 6.6114 19 6.48239C19 6.35338 18.9746 6.22563 18.9252 6.10645C18.8759 5.98726 18.8035 5.87896 18.7123 5.78773C18.6211 5.69651 18.5128 5.62415 18.3936 5.57478C18.2744 5.52541 18.1466 5.5 18.0176 5.5ZM15.9088 4.37352C16.4681 3.81421 17.2267 3.5 18.0176 3.5C18.4093 3.5 18.7971 3.57714 19.1589 3.72702C19.5208 3.8769 19.8496 4.09658 20.1265 4.37352C20.4034 4.65046 20.6231 4.97924 20.773 5.34108C20.9229 5.70292 21 6.09074 21 6.48239C21 6.87404 20.9229 7.26186 20.773 7.6237C20.6231 7.98554 20.4034 8.31432 20.1265 8.59126L9.22859 19.4892C8.58779 20.13 7.78489 20.5846 6.90573 20.8043L4.24256 21.4701C3.90178 21.5553 3.54129 21.4555 3.29291 21.2071C3.04453 20.9587 2.94468 20.5982 3.02988 20.2575L3.69567 17.5943C3.91546 16.7151 4.37006 15.9122 5.01085 15.2714L15.9088 4.37352Z" fill="#FF772D"/>
<path fill-rule="evenodd" clip-rule="evenodd" d="M16.293 11.2072L13.293 8.20718L14.7072 6.79297L17.7072 9.79297L16.293 11.2072Z" fill="#FF772D"/>
<path fill-rule="evenodd" clip-rule="evenodd" d="M12 20.5C12 19.9477 12.4477 19.5 13 19.5L20 19.5C20.5523 19.5 21 19.9477 21 20.5C21 21.0523 20.5523 21.5 20 21.5L13 21.5C12.4477 21.5 12 21.0523 12 20.5Z" fill="#FF772D"/>
</svg>
