<svg width="24" height="24" viewBox="0 0 24 24" fill="none" xmlns="http://www.w3.org/2000/svg">
<path fill-rule="evenodd" clip-rule="evenodd" d="M5.95535 8.25873C4.38925 9.63218 3.34505 11.198 2.89979 11.9369C2.8752 11.9778 2.8752 12.0222 2.89979 12.0631C3.34505 12.802 4.38925 14.3678 5.95535 15.7413C7.52095 17.1143 9.5546 18.25 12.0001 18.25C14.4455 18.25 16.4792 17.1143 18.0448 15.7413C19.6109 14.3678 20.6551 12.802 21.1003 12.0631C21.1249 12.0222 21.1249 11.9778 21.1003 11.9369C20.655 11.198 19.6109 9.63218 18.0448 8.25873C16.4792 6.88571 14.4455 5.75 12.0001 5.75C9.5546 5.75 7.52095 6.88571 5.95535 8.25873ZM4.96632 7.13097C6.69404 5.61578 9.06564 4.25 12.0001 4.25C14.9345 4.25 17.3061 5.61578 19.0338 7.13097C20.761 8.64573 21.8982 10.3548 22.3851 11.1627C22.6966 11.6798 22.6966 12.3202 22.3851 12.8373C21.8982 13.6452 20.761 15.3543 19.0338 16.869C17.3061 18.3842 14.9345 19.75 12.0001 19.75C9.06564 19.75 6.69404 18.3842 4.96632 16.869C3.2391 15.3543 2.1019 13.6452 1.61503 12.8373C1.30345 12.3202 1.30345 11.6798 1.61503 11.1627C2.1019 10.3548 3.2391 8.64573 4.96632 7.13097ZM12.0001 9.75C10.7574 9.75 9.75005 10.7574 9.75005 12C9.75005 13.2426 10.7574 14.25 12.0001 14.25C13.2427 14.25 14.2501 13.2426 14.2501 12C14.2501 10.7574 13.2427 9.75 12.0001 9.75ZM8.25005 12C8.25005 9.92893 9.92898 8.25 12.0001 8.25C14.0711 8.25 15.7501 9.92893 15.7501 12C15.7501 14.0711 14.0711 15.75 12.0001 15.75C9.92898 15.75 8.25005 14.0711 8.25005 12Z" fill="#A3ACC5"/>
</svg>
