<svg width="24" height="25" viewBox="0 0 24 25" fill="none" xmlns="http://www.w3.org/2000/svg">
<path fill-rule="evenodd" clip-rule="evenodd" d="M12 2.5C12.5523 2.5 13 2.94772 13 3.5L13 6.5C13 7.05228 12.5523 7.5 12 7.5C11.4477 7.5 11 7.05228 11 6.5L11 3.5C11 2.94772 11.4477 2.5 12 2.5Z" fill="#27AE60"/>
<path fill-rule="evenodd" clip-rule="evenodd" d="M17 12.5C17 11.9477 17.4477 11.5 18 11.5H21C21.5523 11.5 22 11.9477 22 12.5C22 13.0523 21.5523 13.5 21 13.5H18C17.4477 13.5 17 13.0523 17 12.5Z" fill="#27AE60"/>
<path fill-rule="evenodd" clip-rule="evenodd" d="M12 22.5C11.4477 22.5 11 22.0523 11 21.5L11 18.5C11 17.9477 11.4477 17.5 12 17.5C12.5523 17.5 13 17.9477 13 18.5L13 21.5C13 22.0523 12.5523 22.5 12 22.5Z" fill="#27AE60"/>
<path fill-rule="evenodd" clip-rule="evenodd" d="M2 12.5C2 11.9477 2.44772 11.5 3 11.5L6 11.5C6.55228 11.5 7 11.9477 7 12.5C7 13.0523 6.55228 13.5 6 13.5L3 13.5C2.44772 13.5 2 13.0523 2 12.5Z" fill="#27AE60"/>
<path fill-rule="evenodd" clip-rule="evenodd" d="M4.92879 5.42888C5.31931 5.03836 5.95248 5.03836 6.343 5.42888L8.46432 7.5502C8.85484 7.94072 8.85484 8.57389 8.46432 8.96441C8.0738 9.35494 7.44063 9.35494 7.05011 8.96441L4.92879 6.84309C4.53826 6.45257 4.53826 5.8194 4.92879 5.42888Z" fill="#27AE60"/>
<path fill-rule="evenodd" clip-rule="evenodd" d="M19.0706 5.42888C19.4611 5.8194 19.4611 6.45257 19.0706 6.84309L16.9493 8.96441C16.5588 9.35494 15.9256 9.35494 15.5351 8.96441C15.1446 8.57389 15.1446 7.94072 15.5351 7.5502L17.6564 5.42888C18.0469 5.03836 18.6801 5.03836 19.0706 5.42888Z" fill="#27AE60"/>
<path fill-rule="evenodd" clip-rule="evenodd" d="M19.0712 19.5711C18.6807 19.9616 18.0475 19.9616 17.657 19.5711L15.5357 17.4498C15.1452 17.0593 15.1452 16.4261 15.5357 16.0356C15.9262 15.6451 16.5594 15.6451 16.9499 16.0356L19.0712 18.1569C19.4617 18.5474 19.4617 19.1806 19.0712 19.5711Z" fill="#27AE60"/>
<path fill-rule="evenodd" clip-rule="evenodd" d="M4.92864 19.571C4.53811 19.1804 4.53811 18.5473 4.92864 18.1568L7.04996 16.0354C7.44048 15.6449 8.07364 15.6449 8.46417 16.0354C8.85469 16.426 8.85469 17.0591 8.46417 17.4496L6.34285 19.571C5.95232 19.9615 5.31916 19.9615 4.92864 19.571Z" fill="#27AE60"/>
</svg>
