<svg width="300" height="236" viewBox="0 0 300 236" fill="none" xmlns="http://www.w3.org/2000/svg">
<g clip-path="url(#clip0_603_12276)">
<path d="M272.35 0.154297H0.116211V174.356H272.35V0.154297Z" fill="#E6E6E6"/>
<path d="M264.565 22.0034H7.90039V164.05H264.565V22.0034Z" fill="white"/>
<path d="M272.233 0H0V11.5556H272.233V0Z" fill="#FF772D"/>
<path d="M8.59474 8.04961C9.7786 8.04961 10.7383 7.09072 10.7383 5.90786C10.7383 4.72501 9.7786 3.76611 8.59474 3.76611C7.41088 3.76611 6.45117 4.72501 6.45117 5.90786C6.45117 7.09072 7.41088 8.04961 8.59474 8.04961Z" fill="white"/>
<path d="M16.7315 8.04961C17.9153 8.04961 18.875 7.09072 18.875 5.90786C18.875 4.72501 17.9153 3.76611 16.7315 3.76611C15.5476 3.76611 14.5879 4.72501 14.5879 5.90786C14.5879 7.09072 15.5476 8.04961 16.7315 8.04961Z" fill="white"/>
<path d="M24.8672 8.04961C26.0511 8.04961 27.0108 7.09072 27.0108 5.90786C27.0108 4.72501 26.0511 3.76611 24.8672 3.76611C23.6833 3.76611 22.7236 4.72501 22.7236 5.90786C22.7236 7.09072 23.6833 8.04961 24.8672 8.04961Z" fill="white"/>
<path d="M97.1733 36.7422H31.2227V149.312H97.1733V36.7422Z" fill="#E6E6E6"/>
<path d="M163.517 36.7422H108.558V67.7283H163.517V36.7422Z" fill="#FF772D"/>
<path d="M163.517 76.3574H108.558V109.697H163.517V76.3574Z" fill="#E6E6E6"/>
<path d="M163.517 118.326H108.558V149.312H163.517V118.326Z" fill="#E6E6E6"/>
<path d="M241.244 36.7422H175.293V85.7995H241.244V36.7422Z" fill="#E6E6E6"/>
<path d="M241.244 100.254H175.293V149.312H241.244V100.254Z" fill="#E6E6E6"/>
<path d="M215.837 89.3239V78.7626C215.837 75.0092 217.329 71.4095 219.986 68.7554C222.642 66.1014 226.245 64.6104 230.001 64.6104C233.758 64.6104 237.361 66.1014 240.017 68.7554C242.673 71.4095 244.165 75.0092 244.165 78.7626V89.3239C244.165 89.8279 243.964 90.3111 243.608 90.6675C243.251 91.0239 242.767 91.2244 242.263 91.225H217.74C217.235 91.2244 216.752 91.0239 216.395 90.6675C216.038 90.3111 215.837 89.8279 215.837 89.3239Z" fill="#2F2E41"/>
<path d="M250.946 226.768L245.95 228.149L238.239 209.553L245.613 207.515L250.946 226.768Z" fill="#FFB8B8"/>
<path d="M241.986 227.709L251.621 225.045L253.3 231.106L237.599 235.448C237.378 234.652 237.317 233.82 237.418 233.001C237.519 232.181 237.781 231.389 238.188 230.671C238.596 229.952 239.141 229.321 239.793 228.813C240.444 228.304 241.19 227.93 241.986 227.709Z" fill="#2F2E41"/>
<path d="M198.861 230.607H193.677L191.211 210.63H198.862L198.861 230.607Z" fill="#FFB8B8"/>
<path d="M189.975 229.127H199.972V235.416H183.681C183.681 234.59 183.843 233.772 184.16 233.009C184.476 232.246 184.94 231.553 185.524 230.969C186.109 230.385 186.803 229.922 187.566 229.606C188.33 229.29 189.148 229.127 189.975 229.127Z" fill="#2F2E41"/>
<path d="M192.61 118.962C192.98 119.461 193.455 119.873 194.002 120.169C194.548 120.465 195.153 120.637 195.774 120.674C196.394 120.711 197.015 120.612 197.593 120.383C198.171 120.154 198.692 119.801 199.118 119.35L212.898 125.542L211.644 117.798L198.751 113.105C197.944 112.439 196.921 112.092 195.875 112.129C194.83 112.167 193.834 112.586 193.077 113.308C192.32 114.03 191.854 115.005 191.768 116.047C191.682 117.089 191.982 118.126 192.61 118.962Z" fill="#FFB8B8"/>
<path d="M221.241 165.533C216.912 165.533 212.43 164.888 208.663 162.972C206.663 161.975 204.891 160.576 203.457 158.863C202.023 157.15 200.959 155.16 200.33 153.017C198.367 146.807 200.842 140.706 203.235 134.807C204.718 131.151 206.119 127.698 206.483 124.295L206.61 123.086C207.176 117.659 207.665 112.971 210.371 111.213C211.774 110.302 213.661 110.25 216.139 111.054L239.412 118.608L238.557 162.75L238.415 162.797C238.294 162.838 230.089 165.533 221.241 165.533Z" fill="#2F2E41"/>
<path d="M215.732 97.3117C215.732 97.3117 227.148 93.932 236.027 95.1994C236.027 95.1994 230.953 123.081 232.644 132.375C234.336 141.669 203.259 135.966 209.601 127.095L211.715 116.533C211.715 116.533 207.487 112.309 211.292 107.239L215.732 97.3117Z" fill="#FF772D"/>
<path d="M210.117 164.696L196.047 162.06L200.959 124.29C201.289 123.235 208.899 99.3047 212.355 98.0099C214.864 97.127 217.43 96.4147 220.035 95.8779L220.536 95.7778L217.715 100.006L206.483 126.897L210.117 164.696Z" fill="#2F2E41"/>
<path d="M202.785 225.978L184.606 222.951L194.808 181.329L209.989 124.409L210.138 125.42C210.15 125.495 211.568 132.931 232.611 129.632L232.796 129.603L232.847 129.783L258.28 219.57L237.567 223.02L218.674 157.511L202.785 225.978Z" fill="#212121"/>
<path d="M227.981 171.764L227.993 171.444C228.005 171.09 229.256 135.801 228.838 121.609C228.419 107.368 233.034 95.0359 233.08 94.9129L233.118 94.8139L233.22 94.7846C239.19 93.0806 244.369 98.1665 244.42 98.2181L244.493 98.2907L242.793 112.306L250.072 163.272L227.981 171.764Z" fill="#2F2E41"/>
<path d="M227.091 90.9789C232.826 90.9789 237.476 86.3334 237.476 80.603C237.476 74.8725 232.826 70.2271 227.091 70.2271C221.355 70.2271 216.706 74.8725 216.706 80.603C216.706 86.3334 221.355 90.9789 227.091 90.9789Z" fill="#FFB8B8"/>
<path d="M212.486 79.6071C212.49 76.6391 213.671 73.7935 215.772 71.6948C217.872 69.596 220.72 68.4155 223.691 68.4121H225.805C228.776 68.4155 231.624 69.596 233.724 71.6948C235.825 73.7935 237.006 76.6391 237.01 79.6071V79.8184H232.542L231.018 75.555L230.713 79.8184H228.404L227.635 77.6673L227.482 79.8184H212.486V79.6071Z" fill="#2F2E41"/>
<path d="M226.069 92.4123C225.859 92.1286 225.734 91.7914 225.707 91.4396C225.681 91.0878 225.755 90.7357 225.92 90.4239C228.16 86.1663 231.297 78.2993 227.133 73.4477L226.834 73.0991H238.921V91.2308L227.941 93.1665C227.83 93.1861 227.717 93.1961 227.604 93.1962C227.304 93.1962 227.009 93.1251 226.742 92.9889C226.475 92.8526 226.244 92.655 226.069 92.4123Z" fill="#2F2E41"/>
<path d="M177.404 17.5516C168.946 10.4207 158.596 5.89985 147.614 4.53908C136.631 3.17832 125.489 5.03634 115.544 9.88706C105.599 14.7378 97.2797 22.3721 91.598 31.8609C85.9164 41.3497 83.1175 52.284 83.542 63.3333C83.9666 74.3825 87.5962 85.0702 93.9893 94.0959C100.382 103.122 109.263 110.096 119.551 114.171C129.839 118.245 141.091 119.244 151.937 117.046C162.782 114.848 172.755 109.548 180.641 101.79L250.667 160.827C251.732 161.727 253.112 162.167 254.502 162.051C255.892 161.935 257.18 161.271 258.08 160.207C258.981 159.142 259.422 157.764 259.305 156.375C259.189 154.985 258.525 153.699 257.459 152.799L257.452 152.793L187.426 93.7557C195.561 82.0905 199.043 67.8105 197.189 53.7141C195.335 39.6177 188.279 26.7211 177.404 17.5516ZM172.89 88.0709C167.435 94.5306 160.185 99.2289 152.057 101.572C143.929 103.915 135.289 103.797 127.228 101.233C119.167 98.6692 112.048 93.7748 106.772 87.1686C101.495 80.5624 98.2973 72.5412 97.5832 64.1193C96.8691 55.6974 98.6706 47.2531 102.76 39.8541C106.849 32.4552 113.042 26.4339 120.556 22.5518C128.071 18.6697 136.568 17.1011 144.975 18.0443C153.381 18.9876 161.319 22.4003 167.784 27.851C172.077 31.4701 175.614 35.8985 178.194 40.8835C180.774 45.8685 182.345 51.3124 182.82 56.9043C183.294 62.4962 182.661 68.1267 180.957 73.4743C179.253 78.8219 176.512 83.7818 172.89 88.0709Z" fill="#3F3D56"/>
<path opacity="0.3" d="M112.619 93.1727C104.414 86.2545 99.1127 76.5062 97.7681 65.8635C96.4236 55.2208 99.134 44.4621 105.361 35.7236C104.543 36.5465 103.753 37.4083 102.989 38.309C99.3672 42.5981 96.626 47.558 94.9223 52.9056C93.2186 58.2532 92.5858 63.8837 93.0599 69.4756C93.534 75.0675 95.1059 80.5114 97.6857 85.4964C100.266 90.4814 103.803 94.9098 108.096 98.5289C112.388 102.148 117.352 104.887 122.705 106.589C128.057 108.291 133.692 108.924 139.289 108.45C144.885 107.976 150.334 106.406 155.323 103.828C160.312 101.25 164.745 97.7162 168.367 93.4272C169.128 92.5253 169.846 91.6017 170.518 90.6563C162.945 98.2596 152.786 102.739 142.06 103.205C131.334 103.671 120.825 100.09 112.619 93.1727Z" fill="black"/>
<path d="M230.425 137.101C231.029 137.249 231.658 137.262 232.267 137.141C232.877 137.019 233.452 136.765 233.953 136.398C234.454 136.03 234.868 135.557 235.166 135.012C235.464 134.467 235.639 133.863 235.678 133.243L250.237 129.206L244.319 124.05L231.401 128.675C230.354 128.678 229.345 129.064 228.565 129.761C227.785 130.458 227.287 131.416 227.167 132.455C227.047 133.494 227.312 134.54 227.912 135.397C228.513 136.253 229.407 136.86 230.425 137.101Z" fill="#FFB8B8"/>
<path d="M236.476 134.965L235.59 126.555L247.751 119.851L239.822 110.261L241.116 99.4889L244.338 98.1094L244.438 98.2381C245.957 100.19 259.281 117.367 259.281 119.491C259.281 121.671 256.732 128.076 253.245 129.818C249.881 131.499 237.249 134.765 236.713 134.903L236.476 134.965Z" fill="#2F2E41"/>
<path d="M299.577 235.98H138.485C138.373 235.98 138.266 235.936 138.186 235.856C138.107 235.777 138.062 235.67 138.062 235.558C138.062 235.446 138.107 235.338 138.186 235.259C138.266 235.18 138.373 235.135 138.485 235.135H299.577C299.689 235.135 299.797 235.18 299.876 235.259C299.956 235.338 300 235.446 300 235.558C300 235.67 299.956 235.777 299.876 235.856C299.797 235.936 299.689 235.98 299.577 235.98Z" fill="#CCCCCC"/>
</g>
<defs>
<clipPath id="clip0_603_12276">
<rect width="300" height="235.98" fill="white"/>
</clipPath>
</defs>
</svg>
