<svg width="24" height="24" viewBox="0 0 24 24" fill="none" xmlns="http://www.w3.org/2000/svg">
<g clip-path="url(#clip0_623_15391)">
<path d="M3 19.0002C4.36817 18.2103 5.92017 17.7944 7.5 17.7944C9.07983 17.7944 10.6318 18.2103 12 19.0002C13.3682 18.2103 14.9202 17.7944 16.5 17.7944C18.0798 17.7944 19.6318 18.2103 21 19.0002" stroke="#B0B0B0" stroke-width="2" stroke-linecap="round" stroke-linejoin="round"/>
<path d="M3 5.99972C4.36817 5.2098 5.92017 4.79395 7.5 4.79395C9.07983 4.79395 10.6318 5.2098 12 5.99972C13.3682 5.2098 14.9202 4.79395 16.5 4.79395C18.0798 4.79395 19.6318 5.2098 21 5.99972" stroke="#B0B0B0" stroke-width="2" stroke-linecap="round" stroke-linejoin="round"/>
<path d="M3 6V19" stroke="#B0B0B0" stroke-width="2" stroke-linecap="round" stroke-linejoin="round"/>
<path d="M12 6V19" stroke="#B0B0B0" stroke-width="2" stroke-linecap="round" stroke-linejoin="round"/>
<path d="M21 6V19" stroke="#B0B0B0" stroke-width="2" stroke-linecap="round" stroke-linejoin="round"/>
</g>
<defs>
<clipPath id="clip0_623_15391">
<rect width="24" height="24" fill="white"/>
</clipPath>
</defs>
</svg>
