<svg width="48" height="48" viewBox="0 0 48 48" fill="none" xmlns="http://www.w3.org/2000/svg">
<rect width="48" height="48" rx="12" fill="#1877F2" fill-opacity="0.1"/>
<g clip-path="url(#clip0_1055_7265)">
<path d="M40 24C40 15.1635 32.8365 8 24 8C15.1635 8 8 15.1635 8 24C8 31.9859 13.8509 38.6053 21.5 39.8056V28.625H17.4375V24H21.5V20.475C21.5 16.465 23.8887 14.25 27.5435 14.25C29.2935 14.25 31.125 14.5625 31.125 14.5625V18.5H29.1075C27.12 18.5 26.5 19.7335 26.5 21V24H30.9375L30.2281 28.625H26.5V39.8056C34.1491 38.6053 40 31.9859 40 24Z" fill="#1877F2"/>
<path d="M30.2282 28.625L30.9375 24H26.5V21C26.5 19.7347 27.12 18.5 29.1076 18.5H31.125V14.5625C31.125 14.5625 29.2941 14.25 27.5435 14.25C23.8888 14.25 21.5 16.465 21.5 20.475V24H17.4375V28.625H21.5V39.8056C23.1566 40.0648 24.8434 40.0648 26.5 39.8056V28.625H30.2282Z" fill="white"/>
</g>
<defs>
<clipPath id="clip0_1055_7265">
<rect width="32" height="32" fill="white" transform="translate(8 8)"/>
</clipPath>
</defs>
</svg>
