<svg width="48" height="48" viewBox="0 0 48 48" fill="none" xmlns="http://www.w3.org/2000/svg">
<rect width="48" height="48" rx="12" fill="#26A5E5" fill-opacity="0.1"/>
<g clip-path="url(#clip0_1055_8122)">
<path d="M24 40C32.8365 40 40 32.8365 40 24C40 15.1635 32.8365 8 24 8C15.1635 8 8 15.1635 8 24C8 32.8365 15.1635 40 24 40Z" fill="url(#paint0_linear_1055_8122)"/>
<path fill-rule="evenodd" clip-rule="evenodd" d="M15.2433 23.8309C19.9077 21.7987 23.0179 20.459 24.5742 19.8117C29.0175 17.9635 29.9408 17.6425 30.5426 17.6319C30.675 17.6296 30.9709 17.6624 31.1626 17.8179C31.3245 17.9493 31.369 18.1267 31.3903 18.2512C31.4117 18.3757 31.4382 18.6595 31.4171 18.8811C31.1763 21.4111 30.1344 27.5507 29.6043 30.3843C29.3801 31.5833 28.9385 31.9853 28.5109 32.0247C27.5817 32.1101 26.8762 31.4106 25.9763 30.8207C24.5681 29.8976 23.7725 29.323 22.4056 28.4222C20.8259 27.3812 21.85 26.8091 22.7503 25.874C22.9859 25.6293 27.0797 21.9056 27.1589 21.5678C27.1689 21.5255 27.1781 21.3681 27.0845 21.2849C26.9909 21.2018 26.8529 21.2302 26.7532 21.2528C26.612 21.2849 24.3623 22.7718 20.0043 25.7136C19.3658 26.1521 18.7874 26.3657 18.2692 26.3545C17.6979 26.3422 16.599 26.0315 15.7821 25.7659C14.7801 25.4403 13.9837 25.2681 14.053 24.7149C14.0892 24.4267 14.4859 24.1321 15.2433 23.8309Z" fill="white"/>
</g>
<defs>
<linearGradient id="paint0_linear_1055_8122" x1="24" y1="8" x2="24" y2="39.7627" gradientUnits="userSpaceOnUse">
<stop stop-color="#2AABEE"/>
<stop offset="1" stop-color="#229ED9"/>
</linearGradient>
<clipPath id="clip0_1055_8122">
<rect width="32" height="32" fill="white" transform="translate(8 8)"/>
</clipPath>
</defs>
</svg>
