<svg width="48" height="48" viewBox="0 0 48 48" fill="none" xmlns="http://www.w3.org/2000/svg">
<rect width="48" height="48" rx="12" fill="black" fill-opacity="0.1"/>
<g clip-path="url(#clip0_1055_7057)">
<path d="M37.3333 8H10.6667C9.19391 8 8 9.19391 8 10.6667V37.3333C8 38.8061 9.19391 40 10.6667 40H37.3333C38.8061 40 40 38.8061 40 37.3333V10.6667C40 9.19391 38.8061 8 37.3333 8Z" fill="black"/>
<path d="M21.6059 22.1096V21.2818C21.3223 21.2439 21.0339 21.2202 20.7362 21.2202C17.1867 21.2156 14.2988 24.1058 14.2988 27.663C14.2988 29.8438 15.3859 31.7738 17.0496 32.9422C15.9767 31.7927 15.3197 30.2458 15.3197 28.5524C15.3197 25.0471 18.1272 22.19 21.6059 22.1096Z" fill="#25F4EE"/>
<path d="M21.763 31.4947C23.3463 31.4947 24.6413 30.2317 24.6981 28.6612L24.7029 14.6261H27.2645C27.2125 14.3376 27.1842 14.0396 27.1842 13.7368H23.6866L23.6819 27.7719C23.6252 29.3424 22.3301 30.6054 20.7468 30.6054C20.2553 30.6054 19.7921 30.4824 19.3809 30.2648C19.9102 31.0074 20.7799 31.4947 21.763 31.4947Z" fill="#25F4EE"/>
<path d="M32.0519 19.3898V18.6093C31.0736 18.6093 30.1661 18.3207 29.4004 17.8193C30.081 18.5999 31.0026 19.1675 32.0519 19.3898Z" fill="#25F4EE"/>
<path d="M29.3992 17.8195C28.6524 16.9633 28.2034 15.8469 28.2034 14.6265H27.2676C27.5086 15.9605 28.3027 17.1052 29.3992 17.8195Z" fill="#FE2C55"/>
<path d="M20.7406 24.7162C19.1194 24.7162 17.8008 26.036 17.8008 27.6585C17.8008 28.7891 18.4436 29.773 19.3794 30.265C19.0296 29.7824 18.8217 29.1912 18.8217 28.5478C18.8217 26.9253 20.1404 25.6055 21.7616 25.6055C22.064 25.6055 22.357 25.6575 22.6312 25.7427V22.1666C22.3476 22.1287 22.0593 22.105 21.7616 22.105C21.7096 22.105 21.6623 22.1098 21.6103 22.1098V24.8534C21.3314 24.7682 21.0431 24.7162 20.7406 24.7162Z" fill="#FE2C55"/>
<path d="M32.0505 19.3896V22.1096C30.2355 22.1096 28.553 21.5278 27.1822 20.5438V27.6631C27.1822 31.2156 24.2944 34.1106 20.7402 34.1106C19.3695 34.1106 18.0934 33.6754 17.0488 32.9422C18.2257 34.2052 19.9036 35 21.7611 35C25.3106 35 28.2032 32.1096 28.2032 28.5524V21.4332C29.5738 22.4171 31.2564 22.9989 33.0714 22.9989V19.4984C32.7168 19.4984 32.3766 19.4606 32.0505 19.3896Z" fill="#FE2C55"/>
<path d="M27.1836 27.6634V20.5441C28.5542 21.5281 30.2368 22.1099 32.0518 22.1099V19.3899C31.0025 19.1677 30.0808 18.6 29.4003 17.8195C28.3037 17.1052 27.5144 15.9605 27.2639 14.6265H24.7022L24.6975 28.6615C24.6408 30.232 23.3457 31.495 21.7624 31.495C20.7793 31.495 19.9144 31.0078 19.3756 30.2699C18.4397 29.7731 17.7969 28.794 17.7969 27.6634C17.7969 26.0409 19.1156 24.7211 20.7368 24.7211C21.0392 24.7211 21.3323 24.7731 21.6064 24.8583V22.1147C18.1278 22.1903 15.3203 25.0475 15.3203 28.5527C15.3203 30.2462 15.9772 31.7883 17.0502 32.9425C18.0947 33.6757 19.3708 34.1109 20.7415 34.1109C24.291 34.1109 27.1836 31.2159 27.1836 27.6634Z" fill="white"/>
</g>
<defs>
<clipPath id="clip0_1055_7057">
<rect width="32" height="32" fill="white" transform="translate(8 8)"/>
</clipPath>
</defs>
</svg>
