<svg width="48" height="48" viewBox="0 0 48 48" fill="none" xmlns="http://www.w3.org/2000/svg">
<rect width="48" height="48" rx="12" fill="#1D9BF0" fill-opacity="0.1"/>
<path d="M35.9817 17.2485C36.0007 17.5208 36.0007 17.7931 36.0007 18.0679C36.0007 26.4419 29.5673 36.0996 17.8034 36.0996V36.0946C14.3283 36.0996 10.9254 35.1133 8 33.2535C8.50531 33.3137 9.01314 33.3439 9.52225 33.3451C12.4021 33.3476 15.1997 32.3902 17.4653 30.627C14.7286 30.5755 12.3286 28.8074 11.4903 26.226C12.449 26.4092 13.4368 26.3716 14.3777 26.1169C11.394 25.5195 9.24743 22.9219 9.24743 19.9051C9.24743 19.8775 9.24743 19.8512 9.24743 19.8248C10.1365 20.3155 11.1319 20.5878 12.1501 20.6179C9.33988 18.7569 8.47364 15.0524 10.1707 12.1561C13.4178 16.1153 18.2087 18.5222 23.3516 18.7769C22.8362 16.5759 23.5404 14.2693 25.2019 12.7221C27.7778 10.3227 31.8291 10.4457 34.2505 12.9969C35.6829 12.717 37.0557 12.1962 38.312 11.4584C37.8345 12.9253 36.8353 14.1715 35.5005 14.9633C36.7682 14.8152 38.0067 14.4789 39.1731 13.9657C38.3145 15.2406 37.233 16.3512 35.9817 17.2485Z" fill="#1D9BF0"/>
</svg>
