<svg width="48" height="48" viewBox="0 0 48 48" fill="none" xmlns="http://www.w3.org/2000/svg">
<rect width="48" height="48" rx="12" fill="#0077FF" fill-opacity="0.1"/>
<g clip-path="url(#clip0_1055_7047)">
<path d="M8 23.36C8 16.1192 8 12.4988 10.2494 10.2494C12.4988 8 16.1192 8 23.36 8H24.64C31.8808 8 35.5011 8 37.7506 10.2494C40 12.4988 40 16.1192 40 23.36V24.64C40 31.8808 40 35.5011 37.7506 37.7506C35.5011 40 31.8808 40 24.64 40H23.36C16.1192 40 12.4988 40 10.2494 37.7506C8 35.5011 8 31.8808 8 24.64V23.36Z" fill="#0077FF"/>
<path d="M25.027 31.0534C17.7337 31.0534 13.5737 26.0534 13.4004 17.7334H17.0537C17.1737 23.8401 19.867 26.4267 22.0003 26.9601V17.7334H25.4405V23.0001C27.5471 22.7734 29.7602 20.3734 30.5069 17.7334H33.9469C33.3736 20.9867 30.9736 23.3867 29.2669 24.3734C30.9736 25.1734 33.7071 27.2667 34.7471 31.0534H30.9603C30.1469 28.5201 28.1205 26.5601 25.4405 26.2934V31.0534H25.027Z" fill="white"/>
</g>
<defs>
<clipPath id="clip0_1055_7047">
<rect width="32" height="32" fill="white" transform="translate(8 8)"/>
</clipPath>
</defs>
</svg>
