<svg width="48" height="48" viewBox="0 0 48 48" fill="none" xmlns="http://www.w3.org/2000/svg">
<rect width="48" height="48" rx="12" fill="#FF0000" fill-opacity="0.1"/>
<path d="M39.3309 16.5267C39.15 15.8446 38.7935 15.2221 38.2969 14.7215C37.8005 14.2208 37.1814 13.8596 36.5018 13.674C34 13 24 13 24 13C24 13 14 13 11.4982 13.674C10.8186 13.8596 10.1995 14.2208 9.70305 14.7215C9.20655 15.2221 8.85001 15.8446 8.66909 16.5267C8 19.0442 8 24.2941 8 24.2941C8 24.2941 8 29.5441 8.66909 32.0615C8.85001 32.7436 9.20655 33.3662 9.70305 33.8667C10.1995 34.3674 10.8186 34.7286 11.4982 34.9142C14 35.5882 24 35.5882 24 35.5882C24 35.5882 34 35.5882 36.5018 34.9142C37.1814 34.7286 37.8005 34.3674 38.2969 33.8667C38.7935 33.3662 39.15 32.7436 39.3309 32.0615C40 29.5441 40 24.2941 40 24.2941C40 24.2941 40 19.0442 39.3309 16.5267Z" fill="#FF0000"/>
<path d="M20 28.5344L28.3637 23.7672L20 19V28.5344Z" fill="white"/>
</svg>
