<svg width="24" height="24" viewBox="0 0 24 24" fill="none" xmlns="http://www.w3.org/2000/svg">
<g clip-path="url(#clip0_1097_8612)">
<path d="M24 12C24 5.3726 18.6274 0 12 0C5.3726 0 0 5.3726 0 12C0 17.9895 4.38821 22.954 10.125 23.8542V15.4688H7.0781V12H10.125V9.35625C10.125 6.34875 11.9166 4.6875 14.6576 4.6875C15.9701 4.6875 17.3438 4.92188 17.3438 4.92188V7.875H15.8307C14.34 7.875 13.875 8.8001 13.875 9.75V12H17.2031L16.6711 15.4688H13.875V23.8542C19.6118 22.954 24 17.9895 24 12Z" fill="#1877F2"/>
<path d="M16.6711 15.4688L17.2031 12H13.875V9.75C13.875 8.801 14.34 7.875 15.8307 7.875H17.3438V4.92188C17.3438 4.92188 15.9706 4.6875 14.6576 4.6875C11.9166 4.6875 10.125 6.34875 10.125 9.35625V12H7.07812V15.4688H10.125V23.8542C11.3675 24.0486 12.6326 24.0486 13.875 23.8542V15.4688H16.6711Z" fill="white"/>
</g>
<defs>
<clipPath id="clip0_1097_8612">
<rect width="24" height="24" fill="white"/>
</clipPath>
</defs>
</svg>
