<svg width="24" height="24" viewBox="0 0 24 24" fill="none" xmlns="http://www.w3.org/2000/svg">
<g clip-path="url(#clip0_1097_8642)">
<path d="M12.0036 0.183105C7.06886 0.183105 5.62561 0.188196 5.34506 0.211468C4.33237 0.295647 3.70221 0.455097 3.01568 0.796905C2.48661 1.05962 2.06935 1.36416 1.65754 1.79105C0.907566 2.56958 0.453033 3.52737 0.288492 4.66588C0.208495 5.21858 0.185223 5.33133 0.180495 8.15448C0.178677 9.09558 0.180495 10.3341 0.180495 11.9953C0.180495 16.926 0.18595 18.3678 0.209585 18.6478C0.291401 19.6332 0.445942 20.2532 0.773206 20.9314C1.39864 22.2295 2.59315 23.204 4.00038 23.5677C4.48764 23.6931 5.02581 23.7622 5.71671 23.7949C6.00941 23.8077 8.99296 23.8167 11.9783 23.8167C14.9637 23.8167 17.9491 23.8131 18.2345 23.7986C19.0345 23.7609 19.499 23.6986 20.0126 23.5658C21.429 23.2004 22.6017 22.2404 23.2398 20.9241C23.5607 20.2623 23.7234 19.6187 23.7971 18.6847C23.8131 18.4811 23.8198 15.2345 23.8198 11.9922C23.8198 8.74938 23.8125 5.50878 23.7965 5.30513C23.722 4.35607 23.5593 3.71791 23.228 3.04338C22.9562 2.49122 22.6544 2.07886 22.2162 1.65724C21.4342 0.910354 20.4779 0.455824 19.3383 0.291466C18.7861 0.21165 18.6761 0.188014 15.8508 0.183105H12.0036Z" fill="#15191E"/>
<path d="M12.5576 8.79883H4.17969V17.8381H6.51156V14.8973H10.9797L13.0184 17.8381H15.6295L13.3814 14.8838C14.0796 14.7754 14.5822 14.5179 14.8894 14.1113C15.1966 13.7048 15.3502 13.0542 15.3502 12.1869V11.5093C15.3502 10.9943 15.2944 10.5877 15.1966 10.276C15.0989 9.96433 14.9313 9.69328 14.694 9.44933C14.4426 9.21898 14.1633 9.05633 13.8282 8.94793C13.4931 8.85303 13.0742 8.79883 12.5576 8.79883ZM12.1806 12.9051H6.51156V10.791H12.1806C12.5017 10.791 12.7251 10.8452 12.8369 10.9401C12.9485 11.0349 13.0184 11.2111 13.0184 11.4686V12.2276C13.0184 12.4986 12.9485 12.6748 12.8369 12.7696C12.7251 12.8645 12.5017 12.9051 12.1806 12.9051Z" fill="white"/>
<path d="M18.4519 8.34826C19.3233 8.34826 20.0302 7.63971 20.0302 6.76566C20.0302 5.89166 19.3233 5.18311 18.4519 5.18311C17.5799 5.18311 16.873 5.89166 16.873 6.76566C16.873 7.63971 17.5799 8.34826 18.4519 8.34826Z" fill="#F41240"/>
</g>
<defs>
<clipPath id="clip0_1097_8642">
<rect width="24" height="24" fill="white"/>
</clipPath>
</defs>
</svg>
