<svg width="24" height="24" viewBox="0 0 24 24" fill="none" xmlns="http://www.w3.org/2000/svg">
<g clip-path="url(#clip0_1097_8530)">
<path d="M12 24C18.6274 24 24 18.6274 24 12C24 5.3726 18.6274 0 12 0C5.3726 0 0 5.3726 0 12C0 18.6274 5.3726 24 12 24Z" fill="url(#paint0_linear_1097_8530)"/>
<path fill-rule="evenodd" clip-rule="evenodd" d="M5.43104 11.8735C8.92929 10.3493 11.262 9.34451 12.4292 8.85906C15.7617 7.47291 16.4541 7.23216 16.9055 7.22421C17.0048 7.22246 17.2267 7.24706 17.3705 7.36371C17.4919 7.46221 17.5253 7.59531 17.5413 7.68866C17.5573 7.78206 17.5772 7.99486 17.5613 8.16111C17.3808 10.0586 16.5993 14.6633 16.2018 16.7885C16.0336 17.6877 15.7024 17.9893 15.3817 18.0188C14.6848 18.0829 14.1557 17.5582 13.4807 17.1158C12.4246 16.4235 11.8279 15.9925 10.8027 15.3169C9.61799 14.5362 10.386 14.1071 11.0612 13.4058C11.2379 13.2222 14.3083 10.4295 14.3677 10.1761C14.3752 10.1444 14.3821 10.0263 14.3119 9.96396C14.2417 9.90161 14.1382 9.92291 14.0634 9.93986C13.9575 9.96391 12.2703 11.0791 9.00179 13.2855C8.52289 13.6143 8.08909 13.7746 7.70044 13.7662C7.27199 13.7569 6.44779 13.5239 5.83509 13.3247C5.08359 13.0805 4.4863 12.9513 4.53831 12.5364C4.5654 12.3203 4.86298 12.0994 5.43104 11.8735Z" fill="white"/>
</g>
<defs>
<linearGradient id="paint0_linear_1097_8530" x1="12" y1="0" x2="12" y2="23.822" gradientUnits="userSpaceOnUse">
<stop stop-color="#2AABEE"/>
<stop offset="1" stop-color="#229ED9"/>
</linearGradient>
<clipPath id="clip0_1097_8530">
<rect width="24" height="24" fill="white"/>
</clipPath>
</defs>
</svg>
