<svg width="24" height="24" viewBox="0 0 24 24" fill="none" xmlns="http://www.w3.org/2000/svg">
<g clip-path="url(#clip0_1097_8565)">
<path d="M22 0H2C0.89543 0 0 0.89543 0 2V22C0 23.1046 0.89543 24 2 24H22C23.1046 24 24 23.1046 24 22V2C24 0.89543 23.1046 0 22 0Z" fill="black"/>
<path d="M10.2049 10.582V9.96124C9.99219 9.93279 9.77594 9.91504 9.55264 9.91504C6.89049 9.91154 4.72461 12.0792 4.72461 14.7471C4.72461 16.3827 5.53989 17.8302 6.78769 18.7065C5.98299 17.8444 5.49029 16.6842 5.49029 15.4141C5.49029 12.7852 7.59589 10.6423 10.2049 10.582Z" fill="#25F4EE"/>
<path d="M10.3218 17.6212C11.5093 17.6212 12.4805 16.6739 12.5231 15.4961L12.5267 4.96972H14.4479C14.4089 4.7533 14.3877 4.52979 14.3877 4.30273H11.7645L11.7609 14.8291C11.7184 16.0069 10.7471 16.9542 9.55961 16.9542C9.19096 16.9542 8.84356 16.8619 8.53516 16.6987C8.93216 17.2557 9.58441 17.6212 10.3218 17.6212Z" fill="#25F4EE"/>
<path d="M18.0394 8.54211V7.95676C17.3057 7.95676 16.625 7.74031 16.0508 7.36426C16.5612 7.94966 17.2524 8.37541 18.0394 8.54211Z" fill="#25F4EE"/>
<path d="M16.0499 7.36448C15.4898 6.72233 15.153 5.88508 15.153 4.96973H14.4512C14.6319 5.97023 15.2275 6.82878 16.0499 7.36448Z" fill="#FE2C55"/>
<path d="M9.55646 12.537C8.34056 12.537 7.35156 13.5269 7.35156 14.7438C7.35156 15.5917 7.83366 16.3296 8.53556 16.6986C8.27321 16.3367 8.11726 15.8933 8.11726 15.4108C8.11726 14.1939 9.10626 13.204 10.3222 13.204C10.549 13.204 10.7688 13.243 10.9744 13.3069V10.6248C10.7617 10.5964 10.5455 10.5786 10.3222 10.5786C10.2832 10.5786 10.2477 10.5822 10.2087 10.5822V12.6399C9.99956 12.5761 9.78331 12.537 9.55646 12.537Z" fill="#FE2C55"/>
<path d="M18.0384 8.54248V10.5824C16.6771 10.5824 15.4152 10.1461 14.3872 9.40813V14.7476C14.3872 17.412 12.2213 19.5832 9.55561 19.5832C8.52761 19.5832 7.57051 19.2568 6.78711 18.7069C7.66976 19.6541 8.92816 20.2502 10.3213 20.2502C12.9834 20.2502 15.1529 18.0825 15.1529 15.4145V10.0751C16.1809 10.8131 17.4428 11.2494 18.804 11.2494V8.62408C18.5381 8.62408 18.2829 8.59568 18.0384 8.54248Z" fill="#FE2C55"/>
<path d="M14.3877 14.7474V9.40798C15.4157 10.1459 16.6776 10.5823 18.0388 10.5823V8.54233C17.2519 8.37563 16.5606 7.94988 16.0502 7.36448C15.2278 6.82878 14.6358 5.97023 14.4479 4.96973H12.5267L12.5231 15.496C12.4806 16.6739 11.5093 17.6211 10.3218 17.6211C9.58448 17.6211 8.93578 17.2557 8.53168 16.7023C7.82978 16.3297 7.34768 15.5954 7.34768 14.7474C7.34768 13.5305 8.33668 12.5407 9.55258 12.5407C9.77943 12.5407 9.99924 12.5797 10.2048 12.6436V10.5859C7.59583 10.6426 5.49023 12.7855 5.49023 15.4144C5.49023 16.6845 5.98293 17.8411 6.78763 18.7068C7.57103 19.2567 8.52813 19.5831 9.55613 19.5831C12.2183 19.5831 14.3877 17.4118 14.3877 14.7474Z" fill="white"/>
</g>
<defs>
<clipPath id="clip0_1097_8565">
<rect width="24" height="24" fill="white"/>
</clipPath>
</defs>
</svg>
