<svg width="24" height="24" viewBox="0 0 24 24" fill="none" xmlns="http://www.w3.org/2000/svg">
<path d="M20.9863 6.93639C21.0006 7.1406 21.0006 7.34482 21.0006 7.55096C21.0006 13.8314 16.1754 21.0747 7.35255 21.0747V21.0709C4.74624 21.0747 2.19409 20.335 0 18.9401C0.37898 18.9853 0.759856 19.0079 1.14169 19.0088C3.30158 19.0107 5.39975 18.2926 7.09895 16.9703C5.04642 16.9316 3.24649 15.6055 2.6177 13.6695C3.33672 13.8069 4.07758 13.7787 4.78331 13.5877C2.54552 13.1396 0.935576 11.1914 0.935576 8.92882C0.935576 8.90814 0.935576 8.88837 0.935576 8.8686C1.60235 9.23659 2.34891 9.44085 3.11256 9.46341C1.00491 8.06766 0.355233 5.2893 1.62799 3.11707C4.06334 6.08648 7.65651 7.89167 11.5137 8.08271C11.1271 6.43189 11.6553 4.70201 12.9014 3.54154C14.8334 1.74201 17.8718 1.83425 19.6879 3.74766C20.7622 3.53778 21.7918 3.14719 22.734 2.59378C22.3759 3.69401 21.6265 4.6286 20.6254 5.22248C21.5762 5.11143 22.505 4.85919 23.3798 4.47425C22.7358 5.43048 21.9247 6.26343 20.9863 6.93639Z" fill="#1D9BF0"/>
</svg>
