<svg width="24" height="24" viewBox="0 0 24 24" fill="none" xmlns="http://www.w3.org/2000/svg">
<path d="M23.4982 6.39501C23.3625 5.88346 23.0951 5.41658 22.7227 5.0411C22.3503 4.66563 21.8861 4.39472 21.3764 4.2555C19.5 3.75 12 3.75 12 3.75C12 3.75 4.5 3.75 2.62364 4.2555C2.11393 4.39472 1.64966 4.66563 1.27729 5.0411C0.904915 5.41658 0.637505 5.88346 0.50182 6.39501C0 8.28313 0 12.2206 0 12.2206C0 12.2206 0 16.1581 0.50182 18.0462C0.637505 18.5577 0.904915 19.0246 1.27729 19.4001C1.64966 19.7756 2.11393 20.0465 2.62364 20.1857C4.5 20.6912 12 20.6912 12 20.6912C12 20.6912 19.5 20.6912 21.3764 20.1857C21.8861 20.0465 22.3503 19.7756 22.7227 19.4001C23.0951 19.0246 23.3625 18.5577 23.4982 18.0462C24 16.1581 24 12.2206 24 12.2206C24 12.2206 24 8.28313 23.4982 6.39501Z" fill="#FF0000"/>
<path d="M9 15.4008L15.2727 11.8254L9 8.25V15.4008Z" fill="white"/>
</svg>
